<?xml version="1.0" encoding="UTF-8" standalone="no"?>
<!-- Created with Inkscape (http://www.inkscape.org/) -->

<svg
   xmlns:dc="http://purl.org/dc/elements/1.1/"
   xmlns:cc="http://creativecommons.org/ns#"
   xmlns:rdf="http://www.w3.org/1999/02/22-rdf-syntax-ns#"
   xmlns:svg="http://www.w3.org/2000/svg"
   xmlns="http://www.w3.org/2000/svg"
   xmlns:sodipodi="http://sodipodi.sourceforge.net/DTD/sodipodi-0.dtd"
   xmlns:inkscape="http://www.inkscape.org/namespaces/inkscape"
   width="111.05"
   height="89.519997"
   id="svg4335"
   version="1.1"
   inkscape:version="0.48.1 "
   sodipodi:docname="Neues Dokument 3">
  <defs
     id="defs4337">
    <clipPath
       clipPathUnits="userSpaceOnUse"
       id="clipPath362">
      <path
         inkscape:connector-curvature="0"
         d="m 51.018,411.589 87.464,0 0,70.311 -87.464,0 0,-70.311 z"
         id="path364" />
    </clipPath>
  </defs>
  <sodipodi:namedview
     id="base"
     pagecolor="#ffffff"
     bordercolor="#666666"
     borderopacity="1.0"
     inkscape:pageopacity="0.0"
     inkscape:pageshadow="2"
     inkscape:zoom="5.6098899"
     inkscape:cx="55.525002"
     inkscape:cy="44.760002"
     inkscape:document-units="px"
     inkscape:current-layer="layer1"
     showgrid="false"
     fit-margin-top="0"
     fit-margin-left="0"
     fit-margin-right="0"
     fit-margin-bottom="0"
     inkscape:window-width="1024"
     inkscape:window-height="708"
     inkscape:window-x="-4"
     inkscape:window-y="-4"
     inkscape:window-maximized="1" />
  <metadata
     id="metadata4340">
    <rdf:RDF>
      <cc:Work
         rdf:about="">
        <dc:format>image/svg+xml</dc:format>
        <dc:type
           rdf:resource="http://purl.org/dc/dcmitype/StillImage" />
        <dc:title></dc:title>
      </cc:Work>
    </rdf:RDF>
  </metadata>
  <g
     inkscape:label="Ebene 1"
     inkscape:groupmode="layer"
     id="layer1"
     transform="translate(-4.15905,-293.78338)">
    <g
       id="g358"
       transform="matrix(1.25,0,0,-1.25,-58.721573,897.06325)">
      <g
         id="g360"
         clip-path="url(#clipPath362)">
        <g
           id="g366"
           transform="translate(111.1223,464.4125)">
          <path
             d="m 0,0 c 0.003,-0.283 0.018,-0.972 0.018,-1.36 0,-0.396 -0.015,-1.068 -0.018,-1.316 -0.111,-9.385 -7.111,-17.437 -16.401,-17.437 -9.293,0 -16.296,8.083 -16.395,17.444 -0.007,0.503 -0.012,0.904 -0.012,1.309 0,0.42 0.009,0.838 0.012,1.31 0.075,9.484 7.118,17.463 16.395,17.463 C -7.119,17.413 -0.108,9.405 0,0 m -1.404,-0.016 c 0.003,-0.28 0.018,-0.961 0.018,-1.344 0,-0.391 -0.015,-1.055 -0.018,-1.3 -0.104,-8.742 -6.596,-16.049 -14.997,-16.049 -8.402,0 -14.899,7.335 -14.991,16.053 -0.007,0.499 -0.012,0.896 -0.012,1.296 0,0.417 0.009,0.831 0.012,1.299 0.07,8.83 6.597,16.07 14.991,16.07 8.397,0 14.896,-7.267 14.997,-16.025"
             style="fill:#ffffff;fill-opacity:1;fill-rule:nonzero;stroke:none"
             id="path368"
             inkscape:connector-curvature="0" />
        </g>
        <g
           id="g370"
           transform="translate(108.8138,464.3854)">
          <path
             d="m 0,0 c 0.003,-0.278 0.018,-0.953 0.018,-1.333 0,-0.388 -0.015,-1.047 -0.018,-1.29 -0.099,-8.33 -6.266,-15.16 -14.098,-15.16 -7.831,0 -14.003,6.858 -14.091,15.165 -0.007,0.494 -0.012,0.888 -0.012,1.285 0,0.414 0.008,0.826 0.012,1.291 0.066,8.411 6.262,15.178 14.091,15.178 C -6.268,15.136 -0.096,8.343 0,0 m -27.709,-0.046 c 0.065,8.187 6.084,14.702 13.611,14.702 7.528,0 13.524,-6.541 13.618,-14.662 0.003,-0.276 0.018,-0.949 0.018,-1.327 0,-0.386 -0.015,-1.042 -0.018,-1.284 -0.097,-8.11 -6.09,-14.686 -13.618,-14.686 -7.527,0 -13.525,6.604 -13.611,14.69 -0.007,0.492 -0.012,0.884 -0.012,1.28 0,0.413 0.009,0.824 0.012,1.287"
             style="fill:#002e6b;fill-opacity:1;fill-rule:evenodd;stroke:none"
             id="path372"
             inkscape:connector-curvature="0" />
        </g>
        <g
           id="g374"
           transform="translate(111.1171,464.4119)">
          <path
             d="m 0,0 c 0.003,-0.284 0.018,-0.972 0.018,-1.36 0,-0.396 -0.015,-1.068 -0.018,-1.316 -0.111,-9.385 -7.111,-17.437 -16.401,-17.437 -9.293,0 -16.296,8.083 -16.395,17.444 -0.007,0.503 -0.012,0.904 -0.012,1.309 0,0.42 0.009,0.838 0.012,1.31 0.075,9.484 7.118,17.463 16.395,17.463 C -7.119,17.413 -0.108,9.405 0,0 m -1.404,-0.016 c 0.003,-0.28 0.018,-0.961 0.018,-1.344 0,-0.391 -0.015,-1.055 -0.018,-1.3 -0.104,-8.742 -6.596,-16.049 -14.997,-16.049 -8.402,0 -14.899,7.335 -14.991,16.053 -0.007,0.499 -0.012,0.895 -0.012,1.296 0,0.417 0.009,0.831 0.012,1.299 0.07,8.83 6.597,16.07 14.991,16.07 8.397,0 14.896,-7.267 14.997,-16.025"
             style="fill:#cdb24e;fill-opacity:1;fill-rule:evenodd;stroke:none"
             id="path376"
             inkscape:connector-curvature="0" />
        </g>
        <g
           id="g378"
           transform="translate(125.8885,421.7163)">
          <path
             d="m 0,0 c -0.119,-2.94 -0.167,-6.373 0,-9.656 l -2.654,0 c 0.196,3.064 0.272,6.712 0.022,9.656 L 0,0 z"
             style="fill:#002e6b;fill-opacity:1;fill-rule:nonzero;stroke:none"
             id="path380"
             inkscape:connector-curvature="0" />
        </g>
        <g
           id="g382"
           transform="translate(121.75,421.7163)">
          <path
             d="m 0,0 0.049,-1.746 c -1.101,0.131 -2.834,0.159 -3.392,0.122 0.05,-0.355 -0.019,-2.202 0.008,-2.329 1.011,-0.081 2.13,-0.006 3.087,0.026 0.002,-0.614 0.09,-1.422 0.067,-1.808 -1.058,0.201 -2.779,0.086 -3.154,0.086 0,0 -0.027,-2.263 0.005,-2.407 0.498,-0.04 2.612,-0.071 3.573,0.156 l -0.11,-1.76 -5.983,0 c 0.087,2.603 0.179,6.722 0.015,9.66 L 0,0 z"
             style="fill:#002e6b;fill-opacity:1;fill-rule:nonzero;stroke:none"
             id="path384"
             inkscape:connector-curvature="0" />
        </g>
        <g
           id="g386"
           transform="translate(105.5938,421.7163)">
          <path
             d="m 0,0 0.049,-1.746 c -1.101,0.131 -2.834,0.159 -3.392,0.122 0.05,-0.355 -0.019,-2.202 0.008,-2.329 1.011,-0.081 2.13,-0.006 3.087,0.026 0.002,-0.614 0.09,-1.422 0.067,-1.808 -1.058,0.201 -2.779,0.086 -3.154,0.086 0,0 -0.027,-2.263 0.005,-2.407 0.498,-0.04 2.612,-0.071 3.573,0.156 l -0.11,-1.768 -5.983,0 c 0.087,2.603 0.179,6.73 0.015,9.668 L 0,0 z"
             style="fill:#002e6b;fill-opacity:1;fill-rule:nonzero;stroke:none"
             id="path388"
             inkscape:connector-curvature="0" />
        </g>
        <g
           id="g390"
           transform="translate(97.8942,421.7163)">
          <path
             d="m 0,0 c -0.162,-2.724 -0.045,-5.418 -0.044,-7.438 0,-0.819 -0.496,-2.472 -3.89,-2.472 -3.444,0 -3.879,1.681 -3.898,2.462 -0.047,2.029 0.012,4.595 -0.087,7.448 l 2.456,0 c -0.029,-2.853 -0.106,-5.275 -0.018,-7.078 0.037,-0.766 0.423,-1.262 1.497,-1.225 1.13,-0.037 1.488,0.432 1.483,1.25 0.114,2.821 0.081,4.2 -0.011,7.053 L 0,0 z"
             style="fill:#002e6b;fill-opacity:1;fill-rule:nonzero;stroke:none"
             id="path392"
             inkscape:connector-curvature="0" />
        </g>
        <g
           id="g394"
           transform="translate(77.6551,421.7259)">
          <path
             d="m 0,0 c 1.681,0.081 2.36,-0.923 2.356,-2.268 -0.006,-1.5 -0.81,-2.22 -1.618,-2.423 1.005,-0.105 1.363,-0.869 1.403,-1.358 0.066,-0.809 0.08,-3.176 0.344,-3.628 l -2.205,0 c -0.532,-0.036 -0.065,2.832 -0.569,3.73 -0.399,0.711 -1.54,0.504 -2.254,0.504 0,0 -0.035,-2.061 0.082,-4.234 l -2.445,0 c 0.165,3.157 0.045,6.83 -0.024,9.667 C -4.255,-0.057 -0.786,-0.038 0,0 m 0.141,-2.591 c 0.025,-1.516 -1.132,-1.378 -2.681,-1.347 0.006,0.575 0,2.493 0,2.493 1.522,0.038 2.651,0.259 2.681,-1.146"
             style="fill:#002e6b;fill-opacity:1;fill-rule:evenodd;stroke:none"
             id="path396"
             inkscape:connector-curvature="0" />
        </g>
        <g
           id="g398"
           transform="translate(69.4813,421.6724)">
          <path
             d="M 0,0 C 1.58,-0.361 1.78,-1.778 1.606,-3.002 1.454,-4.077 0.694,-4.481 0.208,-4.695 0.582,-4.839 0.938,-4.951 1.353,-5.435 2.116,-6.324 1.991,-7.938 1.335,-8.73 0.674,-9.526 0.078,-9.588 -1.15,-9.633 c 0,0 -3.439,0.075 -4.644,0.009 0.121,3.183 0.154,6.834 0.042,9.667 C -4.593,-0.019 -0.65,0.148 0,0 M -0.716,-2.635 C -0.694,-3.8 -1.483,-3.979 -3.329,-3.872 l 0.003,2.488 c 1.986,0.094 2.578,-0.068 2.61,-1.251 m 0.156,-4.087 c 0.009,-1.38 -1.102,-1.291 -2.766,-1.254 -0.003,0.017 0,2.506 0,2.506 1.717,0.039 2.775,0.093 2.766,-1.252"
             style="fill:#002e6b;fill-opacity:1;fill-rule:evenodd;stroke:none"
             id="path400"
             inkscape:connector-curvature="0" />
        </g>
        <g
           id="g402"
           transform="translate(111.9472,421.7259)">
          <path
             d="M 0,0 C 1.681,0.081 2.36,-0.923 2.355,-2.268 2.35,-3.768 1.546,-4.488 0.738,-4.691 1.743,-4.796 2.101,-5.56 2.141,-6.049 2.207,-6.858 2.221,-9.225 2.485,-9.677 l -2.205,0 c -0.532,-0.036 -0.064,2.832 -0.569,3.73 -0.399,0.711 -1.529,0.493 -2.242,0.493 0,0 -0.047,-2.05 0.07,-4.223 l -2.445,0 C -4.74,-6.52 -4.861,-2.846 -4.93,-0.009 -4.255,-0.056 -0.786,-0.038 0,0 m 0.141,-2.591 c 0.025,-1.516 -1.132,-1.378 -2.681,-1.347 0.006,0.575 0,2.493 0,2.493 1.522,0.038 2.651,0.259 2.681,-1.146"
             style="fill:#002e6b;fill-opacity:1;fill-rule:evenodd;stroke:none"
             id="path404"
             inkscape:connector-curvature="0" />
        </g>
        <g
           id="g406"
           transform="translate(86.0929,415.5948)">
          <path
             d="M 0,0 -1.125,3.865 -2.273,-0.001 C -1.298,-0.065 -1.079,-0.036 0,0 m 1.009,-3.553 c -0.143,0.494 -0.286,1.325 -0.56,2.015 -0.174,0.009 -1.762,0.087 -3.17,0.001 -0.313,-0.917 -0.309,-1.148 -0.566,-2.034 l -2.465,0 c 0.96,2.508 2.625,7.245 3.321,9.762 l 2.822,0 C 1.09,3.869 2.698,-1.18 3.613,-3.571 l -2.598,0 -0.006,0.018 z"
             style="fill:#002e6b;fill-opacity:1;fill-rule:evenodd;stroke:none"
             id="path408"
             inkscape:connector-curvature="0" />
        </g>
        <g
           id="g410"
           transform="translate(93.4303,434.5157)">
          <path
             d="M 0,0 C 1.58,-0.361 1.769,-1.819 1.595,-3.043 1.443,-4.118 0.683,-4.522 0.197,-4.736 0.571,-4.88 0.928,-4.992 1.342,-5.476 2.105,-6.365 1.98,-7.979 1.324,-8.771 0.663,-9.567 0.067,-9.649 -1.162,-9.694 c 0,0 -3.438,0.09 -4.643,0.024 0.121,3.183 0.154,6.836 0.042,9.669 C -4.739,-0.073 -0.65,0.148 0,0 m -0.908,-1.894 c 0.28,-0.434 0.248,-1.37 -0.14,-1.749 -0.439,-0.429 -2.289,-0.279 -2.289,-0.279 l 0,2.497 c 0.975,0 2.028,0.154 2.429,-0.469 m 0.158,-4.127 c 0.287,-0.476 0.229,-1.405 -0.18,-1.766 -0.469,-0.412 -2.407,-0.23 -2.407,-0.23 l 0,2.506 c 0.975,0 2.198,0.135 2.587,-0.51"
             style="fill:#002e6b;fill-opacity:1;fill-rule:evenodd;stroke:none"
             id="path412"
             inkscape:connector-curvature="0" />
        </g>
        <g
           id="g414"
           transform="translate(56.4259,434.515)">
          <path
             d="m 0,0 0.055,-1.778 c -0.79,0.081 -2.142,0.182 -2.833,0.105 0,-0.369 0,-1.161 -0.005,-2.262 0,0 2.041,-0.037 2.646,0.018 0,-0.397 0.023,-0.91 0.045,-1.702 -0.998,0.191 -2.698,0.054 -2.698,0.054 -0.036,-1.35 0.107,-4.088 0.107,-4.088 l -2.598,0 C -5.059,-6.459 -5.179,-2.834 -5.323,0 L 0,0 z"
             style="fill:#002e6b;fill-opacity:1;fill-rule:nonzero;stroke:none"
             id="path416"
             inkscape:connector-curvature="0" />
        </g>
        <g
           id="g418"
           transform="translate(60.2738,434.515)">
          <path
             d="m 0,0 c -0.122,-2.871 -0.159,-7.483 -0.111,-8.045 0.902,-0.03 2.552,0.071 2.552,0.071 l -0.055,-1.682 -5.141,0 C -2.629,-6.814 -2.594,-2.848 -2.723,0 -2.378,-0.015 0,0 0,0"
             style="fill:#002e6b;fill-opacity:1;fill-rule:nonzero;stroke:none"
             id="path420"
             inkscape:connector-curvature="0" />
        </g>
        <g
           id="g422"
           transform="translate(69.0585,434.515)">
          <path
             d="m 0,0 0.049,-1.757 c -1.102,0.13 -2.834,0.159 -3.392,0.122 0.05,-0.355 -0.02,-2.202 0.008,-2.33 1.011,-0.08 2.13,-0.006 3.087,0.027 0.002,-0.615 0.09,-1.423 0.067,-1.808 -1.058,0.201 -2.779,0.085 -3.154,0.085 0,0 -0.028,-2.262 0.005,-2.406 0.498,-0.041 2.612,-0.071 3.572,0.156 l -0.109,-1.76 -5.983,0 c 0.087,2.602 0.179,6.733 0.015,9.671 L 0,0 z"
             style="fill:#002e6b;fill-opacity:1;fill-rule:nonzero;stroke:none"
             id="path424"
             inkscape:connector-curvature="0" />
        </g>
        <g
           id="g426"
           transform="translate(73.7818,434.515)">
          <path
             d="M 0,0 C 0.697,-2.416 1.526,-5.01 2.207,-7.426 2.223,-5.126 2.166,-2.436 2.003,0 L 4.387,0 C 4.291,-2.845 4.324,-7.256 4.391,-9.659 l -3.385,0 c -0.439,1.689 -1.526,5.585 -2.094,7.426 -0.022,-1.816 0.021,-4.597 0.163,-7.426 l -2.399,0 c 0.122,0.61 0.198,6.813 0.002,9.659 L 0,0 z"
             style="fill:#002e6b;fill-opacity:1;fill-rule:nonzero;stroke:none"
             id="path428"
             inkscape:connector-curvature="0" />
        </g>
        <g
           id="g430"
           transform="translate(86.27,434.0313)">
          <path
             d="m 0,0 c 0,0 -0.023,-1.656 0.018,-2.294 -0.411,-0.032 -1.8,0 -1.8,0 -0.027,0.737 -0.234,1.605 -1.419,1.642 -0.438,0.008 -1.36,-0.092 -1.402,-0.932 0.011,-0.634 0.301,-0.758 0.729,-0.982 0.969,-0.507 1.617,-0.723 2.593,-1.255 1.04,-0.567 1.61,-1.156 1.606,-2.433 0.034,-1.171 -0.564,-3.127 -3.76,-3.122 -1.52,0.026 -2.582,0.3 -3.406,0.668 0,0 0.008,1.789 -0.037,2.604 0.516,-0.03 1.912,0 1.912,0 0.044,-0.797 0.264,-1.869 1.545,-1.862 1.143,-0.021 1.347,0.72 1.368,1.051 -0.007,1.157 -0.869,1.185 -2.366,1.971 -1.178,0.619 -2.404,0.949 -2.434,3.029 0.03,2.177 2.124,2.659 3.543,2.66 C -1.211,0.696 -0.182,0.12 0,0"
             style="fill:#002e6b;fill-opacity:1;fill-rule:nonzero;stroke:none"
             id="path432"
             inkscape:connector-curvature="0" />
        </g>
        <g
           id="g434"
           transform="translate(121.9504,434.159)">
          <path
             d="m 0,0 0,-2.416 -1.837,0 c -0.071,0.443 -0.194,1.021 -0.694,1.313 -0.452,0.265 -1.334,0.315 -1.832,-0.065 -0.519,-0.395 -0.861,-0.926 -0.842,-3.208 0.016,-1.776 0.033,-3.162 0.955,-3.527 0.824,-0.325 1.885,-0.131 2.25,0.031 l 0,1.802 -1.196,0 0,1.644 3.457,0 c 0,0 -0.122,-2.798 0.01,-4.49 -0.7,-0.325 -1.636,-0.523 -2.514,-0.568 -1.186,-0.061 -2.676,-0.253 -4.176,0.791 -1.442,1.003 -1.325,4.939 -0.973,6.557 0.507,2.332 2.342,2.727 4.075,2.727 C -1.3,0.591 0,0 0,0"
             style="fill:#002e6b;fill-opacity:1;fill-rule:nonzero;stroke:none"
             id="path436"
             inkscape:connector-curvature="0" />
        </g>
        <g
           id="g438"
           transform="translate(129.531,434.515)">
          <path
             d="m 0,0 0.049,-1.742 c -1.101,0.13 -2.834,0.159 -3.391,0.121 0.049,-0.354 -0.02,-2.201 0.007,-2.329 1.011,-0.08 2.13,-0.006 3.087,0.027 0.002,-0.615 0.09,-1.423 0.067,-1.809 -1.058,0.202 -2.779,0.086 -3.154,0.086 0,0 -0.027,-2.262 0.005,-2.407 0.498,-0.04 2.612,-0.071 3.573,0.156 l -0.11,-1.759 -5.983,0 c 0.087,2.602 0.179,6.718 0.015,9.656 L 0,0 z"
             style="fill:#002e6b;fill-opacity:1;fill-rule:nonzero;stroke:none"
             id="path440"
             inkscape:connector-curvature="0" />
        </g>
        <g
           id="g442"
           transform="translate(110.8848,434.5291)">
          <path
             d="M 0,0 C 1.681,0.081 2.36,-0.923 2.355,-2.268 2.35,-3.768 1.546,-4.488 0.738,-4.691 1.743,-4.796 2.101,-5.56 2.141,-6.049 2.207,-6.858 2.221,-9.225 2.485,-9.677 l -2.205,0 c -0.532,-0.036 -0.065,2.832 -0.569,3.73 -0.399,0.711 -1.551,0.46 -2.265,0.46 0,0 -0.024,-2.017 0.093,-4.19 l -2.445,0 c 0.165,3.157 0.045,6.826 -0.024,9.663 C -4.255,-0.061 -0.786,-0.038 0,0 m 0.141,-2.591 c 0.025,-1.516 -1.132,-1.378 -2.681,-1.347 0.006,0.575 0,2.493 0,2.493 1.521,0.038 2.651,0.259 2.681,-1.146"
             style="fill:#002e6b;fill-opacity:1;fill-rule:evenodd;stroke:none"
             id="path444"
             inkscape:connector-curvature="0" />
        </g>
        <g
           id="g446"
           transform="translate(135.8611,434.5264)">
          <path
             d="M 0,0 C 1.681,0.081 2.36,-0.923 2.355,-2.268 2.35,-3.768 1.546,-4.488 0.738,-4.691 1.743,-4.796 2.101,-5.56 2.141,-6.049 2.207,-6.858 2.221,-9.225 2.485,-9.677 l -2.205,0 c -0.532,-0.036 -0.065,2.832 -0.569,3.73 -0.399,0.711 -1.551,0.46 -2.265,0.46 0,0 -0.024,-2.017 0.093,-4.19 l -2.445,0 c 0.165,3.157 0.045,6.829 -0.024,9.666 C -4.255,-0.058 -0.786,-0.038 0,0 m 0.141,-2.591 c 0.025,-1.516 -1.132,-1.378 -2.681,-1.347 0.006,0.575 0,2.493 0,2.493 1.521,0.038 2.651,0.259 2.681,-1.146"
             style="fill:#002e6b;fill-opacity:1;fill-rule:evenodd;stroke:none"
             id="path448"
             inkscape:connector-curvature="0" />
        </g>
        <g
           id="g450"
           transform="translate(104.387,434.515)">
          <path
             d="m 0,0 c -0.162,-2.724 -0.045,-5.413 -0.044,-7.433 0,-0.82 -0.496,-2.473 -3.89,-2.473 -3.444,0 -3.879,1.681 -3.898,2.462 -0.047,2.029 0.012,4.591 -0.087,7.444 l 2.456,0 c -0.029,-2.853 -0.106,-5.271 -0.018,-7.074 0.037,-0.765 0.423,-1.261 1.497,-1.225 1.13,-0.036 1.488,0.432 1.483,1.251 0.114,2.82 0.081,4.195 -0.011,7.048 L 0,0 z"
             style="fill:#002e6b;fill-opacity:1;fill-rule:nonzero;stroke:none"
             id="path452"
             inkscape:connector-curvature="0" />
        </g>
        <g
           id="g454"
           transform="translate(83.9672,454.5252)">
          <path
             d="m 0,0 c 0.258,0.058 0.559,0.118 0.613,0.122 0.13,0.055 0.29,0.047 0.422,0.099 0.15,0.015 0.336,0.084 0.467,-0.018 0.154,-0.092 0.248,-0.36 0.463,-0.268 0.133,0.025 0.293,0.03 0.351,0.184 0.399,0.618 1.25,2.377 1.356,4.102 C 3.691,4.533 3.68,4.874 3.398,5.064 3.167,5.177 2.861,5.124 2.707,5.408 2.714,5.668 2.413,5.768 2.245,5.896 2.132,5.878 2.041,5.91 1.97,5.996 1.956,6.052 1.929,6.119 1.955,6.176 L 2.047,6.303 C 2.069,6.677 2.053,7.103 2.05,7.441 2.066,7.518 2.165,7.534 2.214,7.575 2.327,7.606 2.408,7.534 2.466,7.451 2.947,7.564 3.405,7.722 3.867,7.871 3.926,7.899 3.899,7.958 3.935,7.995 3.967,8.076 4.05,8.087 4.117,8.114 4.2,8.105 4.277,8.053 4.325,7.977 4.322,7.937 4.349,7.887 4.393,7.888 5.281,7.735 6.172,7.599 7.05,7.427 7.154,7.444 7.172,7.581 7.279,7.579 7.372,7.594 7.534,7.564 7.536,7.471 L 7.557,5.702 C 8.323,7.067 8.309,9.161 7.765,10.044 7.286,9.925 6.822,9.736 6.292,9.773 5.888,9.821 5.607,10.171 5.288,10.424 4.813,10.318 4.361,10.156 3.897,10.021 3.833,10.013 3.777,9.989 3.728,9.949 3.732,9.862 3.823,9.766 3.741,9.685 3.611,9.647 3.686,9.505 3.584,9.444 3.535,9.393 3.478,9.356 3.415,9.338 3.355,9.394 3.446,9.522 3.333,9.544 3.256,9.543 3.192,9.582 3.125,9.611 3.063,9.561 3.017,9.46 2.934,9.459 2.89,9.482 2.844,9.491 2.807,9.528 2.673,9.536 2.564,9.495 2.453,9.557 2.482,9.624 2.605,9.672 2.54,9.764 2.49,9.817 2.539,9.884 2.538,9.948 c -0.184,0.104 -0.197,0.304 -0.335,0.439 0.013,0.036 -0.034,0.072 -10e-4,0.093 0.063,-0.009 0.171,-0.061 0.216,0.026 0.055,0.15 0.427,-0.075 0.238,0.196 -0.005,0.08 0.098,0.131 0.044,0.217 -0.041,0.069 -0.105,0.129 -0.12,0.205 0.1,0.055 0.214,0.006 0.297,-0.043 0.082,-0.132 0.237,0.03 0.325,-0.086 C 3.269,10.926 3.3,10.84 3.341,10.757 l 0.043,0.01 c 0.248,0.217 0.515,0.403 0.749,0.629 L 2.987,12.492 C 2.917,12.511 2.911,12.428 2.875,12.397 2.799,12.32 2.679,12.318 2.579,12.337 c -0.041,0.073 -0.107,0.005 -0.16,0.008 -0.08,0.012 -0.203,-0.036 -0.231,0.057 0.076,0.041 0.129,0.128 0.087,0.218 -0.023,0.029 0.006,0.083 -0.044,0.102 -0.053,-0.023 -0.07,0.033 -0.104,0.056 -0.044,0.046 -0.005,0.126 -0.082,0.159 -0.07,0.016 -0.123,-0.035 -0.183,-0.002 0.009,0.076 0.054,0.16 0.124,0.194 0.086,0.065 0.001,0.207 0.134,0.242 0.049,0.03 0.126,-0.009 0.169,0.039 -0.185,0.124 0.176,0.292 -0.094,0.362 -0.014,0.013 -0.031,0.026 -0.024,0.046 0.065,0.081 0.196,0.042 0.286,0.037 0.101,-0.112 0.212,0.092 0.307,-0.04 0.027,-0.026 0.041,-0.056 0.071,-0.079 0.063,0.027 0.075,0.098 0.148,0.105 0.05,0.001 0.114,-0.032 0.147,0.002 0.016,0.057 -0.039,0.159 0.045,0.17 0.213,-0.044 0.093,-0.292 0.268,-0.386 0.118,-0.179 -0.276,-0.313 -0.029,-0.424 l 1.472,-0.702 c -0.248,0.327 -0.436,0.748 -0.278,1.176 -0.014,0.1 -0.115,0.169 -0.13,0.272 -0.032,0.196 0.059,0.391 0.234,0.496 0.182,0.102 0.445,0.069 0.607,-0.053 0.095,-0.135 0.206,0.023 0.32,0.004 0.203,0.023 0.376,-0.022 0.56,-0.036 0.102,0.111 0.255,0.136 0.402,0.108 C 6.745,14.413 6.886,14.275 6.935,14.129 6.978,13.899 6.853,13.708 6.702,13.543 6.683,13.439 6.728,13.337 6.762,13.244 6.789,12.987 6.712,12.773 6.53,12.601 L 6.544,12.555 C 6.71,12.383 6.812,12.177 7.007,12.036 l 0.499,0.142 c -0.196,0.161 -0.475,0.319 -0.531,0.602 -0.083,0.255 0.02,0.493 0.161,0.688 -0.056,0.256 0.014,0.513 0.235,0.653 0.417,0.235 0.945,-0.109 1.368,0.143 0.066,-0.208 -0.035,-0.302 -0.103,-0.409 0.23,0.078 0.656,-0.138 0.897,0.019 C 9.59,13.624 9.482,13.403 9.278,13.251 9.086,13.132 8.79,13.088 8.543,13.133 8.557,13.08 8.645,12.96 8.609,12.913 8.529,12.932 8.455,12.968 8.368,12.967 8.162,12.944 7.97,12.855 7.749,12.902 7.73,12.892 7.743,12.872 7.74,12.856 c 0.21,-0.238 0.564,-0.113 0.834,-0.093 0.366,0.074 0.7,0.139 1.09,0.161 l 0.097,1.449 -0.187,0.409 0.204,10e-4 0.005,0.18 C 9.212,15.096 8.512,15.127 7.944,14.951 7.409,14.841 6.905,14.625 6.322,14.668 5.941,14.74 5.657,15.056 5.354,15.319 5.271,15.318 5.201,15.281 5.125,15.26 4.697,15.128 4.269,14.999 3.837,14.868 3.754,14.82 3.855,14.768 3.839,14.708 3.894,14.572 3.691,14.539 3.706,14.42 3.677,14.323 3.575,14.255 3.482,14.234 3.428,14.283 3.493,14.387 3.419,14.429 3.339,14.432 3.266,14.454 3.202,14.507 3.146,14.466 3.1,14.352 3.01,14.364 2.95,14.36 2.91,14.403 2.86,14.423 2.753,14.411 2.61,14.383 2.516,14.439 c 0.016,0.06 0.089,0.097 0.115,0.151 -0.034,0.069 -0.075,0.165 -0.026,0.239 -0.165,0.122 -0.214,0.314 -0.339,0.466 0.003,0.027 -0.027,0.056 -10e-4,0.08 0.057,-0.006 0.107,-0.032 0.173,-0.021 0.079,0.084 0.189,0.132 0.306,0.093 0.026,0.067 -0.039,0.137 -0.003,0.207 0.118,0.141 -0.066,0.242 -0.094,0.365 0.102,0.065 0.203,-0.014 0.297,-0.043 0.105,-0.118 0.31,0.017 0.392,-0.155 0.027,-0.056 0.038,-0.119 0.082,-0.169 L 3.507,15.7 4.2,16.278 4.186,16.324 3.077,17.364 C 2.976,17.439 2.985,17.263 2.895,17.245 2.806,17.194 2.699,17.193 2.608,17.242 c -0.12,10e-4 -0.252,-0.06 -0.353,0.019 0.003,0.06 0.073,0.064 0.102,0.114 0.006,0.08 -0.012,0.153 -0.039,0.22 -0.217,-0.023 -0.092,0.368 -0.356,0.212 -0.047,0.053 0.022,0.113 0.031,0.17 0.173,0.022 0.027,0.22 0.17,0.265 0.056,0.034 0.13,0.032 0.193,0.049 -0.018,0.063 -0.055,0.136 -0.026,0.207 0.026,0.02 0.039,0.047 0.032,0.08 -0.037,0.053 -0.101,0.065 -0.125,0.125 0.119,0.125 0.28,0.01 0.423,0.015 0.023,0.037 0.083,0.025 0.113,0.012 l 0.128,-0.112 c 0.063,0.087 0.169,0.122 0.286,0.107 0.029,0.05 -0.026,0.146 0.041,0.17 C 3.335,18.89 3.373,18.773 3.404,18.694 3.355,18.57 3.532,18.572 3.52,18.465 3.524,18.345 3.439,18.261 3.373,18.167 l 0.061,-0.056 1.528,-0.738 c -0.264,0.33 -0.452,0.768 -0.277,1.186 -0.042,0.127 -0.166,0.215 -0.151,0.365 0.004,0.157 0.096,0.291 0.221,0.393 0.182,0.122 0.462,0.075 0.63,-0.039 0.069,-0.123 0.177,-0.005 0.264,-0.011 0.206,0.026 0.426,0.019 0.616,-0.025 0.102,0.104 0.245,0.139 0.389,0.108 C 6.811,19.318 6.949,19.17 7.001,19.024 7.078,18.775 6.896,18.603 6.769,18.425 6.748,18.208 6.917,18.03 6.809,17.819 6.812,17.642 6.364,17.503 6.556,17.332 7.162,16.282 9.342,16.097 9.863,16.833 9.152,16.916 8.359,16.481 7.622,16.756 c -0.257,0.096 -0.54,0.303 -0.59,0.596 -0.043,0.246 0.047,0.463 0.175,0.655 -0.046,0.249 -0.006,0.5 0.222,0.642 0.34,0.231 0.74,-0.037 1.119,0.07 0.099,0.008 0.185,0.049 0.275,0.084 C 8.93,18.771 8.815,18.673 8.836,18.6 8.803,18.529 8.767,18.459 8.735,18.392 8.852,18.35 8.976,18.321 9.102,18.303 c 0.191,-0.051 0.28,0.017 0.439,0.065 0.077,-0.398 -0.32,-0.799 -0.873,-0.693 0,0.002 0.105,-0.144 0.075,-0.243 -0.268,0.133 -0.66,-0.03 -0.998,0.046 0.123,-0.337 0.599,-0.26 0.834,-0.198 0.439,0.117 0.878,0.168 1.361,0.177 l 0.038,0.484 -0.304,0.462 2.869,3.488 c 0.045,0.08 -0.065,0.149 -0.093,0.225 -0.106,0.186 -0.018,0.407 0.083,0.564 0.145,0.125 0.14,0.187 0.524,0.176 0,-0.004 0.275,-0.062 0.337,-0.205 0.103,-0.19 0.154,-0.398 -0.017,-0.614 -0.036,-0.05 -0.139,-0.098 -0.068,-0.16 l 2.941,-3.371 -0.341,-0.484 0.108,-1.263 c 0.813,-0.153 1.938,-0.064 2.707,0.211 -0.101,-0.168 -0.402,-0.491 -0.402,-0.491 0,0 0.416,-0.336 0.723,-0.421 -0.801,-0.393 -2.088,-0.437 -2.937,-0.381 0.006,0.003 0.096,-1.043 0.096,-1.043 0.537,0.093 1.648,0.074 2.297,-0.102 0.851,-0.232 1.681,-0.16 2.353,0.198 -0.061,-0.204 -0.136,-0.368 -0.276,-0.576 0.047,-0.053 0.386,-0.253 0.757,-0.344 -1.123,-0.554 -2.634,-0.395 -3.589,-0.17 -0.458,0.084 -1.173,0.031 -1.463,-0.028 0.032,-0.399 0.107,-1.211 0.107,-1.211 l 1.701,0.442 c 0.271,0.068 0.301,-0.241 0.19,-0.278 l -0.024,-0.007 c 0.814,-0.863 1.102,-2.201 0.699,-3.338 -0.285,-0.9 -1.007,-1.708 -1.881,-2.285 1.351,0.18 2.66,0.456 4.007,0.646 C 21.155,7.568 21.239,7.549 21.277,7.47 21.324,7.394 21.289,7.293 21.246,7.23 21.111,7.121 19.956,6.992 18.916,6.804 18.748,6.657 18.689,6.001 18.599,5.737 18.135,5.691 17.782,5.567 17.668,5.349 c -0.202,-0.476 0.04,-0.996 0.179,-1.53 0.372,-1.436 -0.314,-2.703 -1.271,-3.73 0.018,-0.057 0.082,-0.103 0.129,-0.135 0.555,0.08 1.801,0.328 1.801,0.328 0.227,-0.011 0.347,-0.289 0.564,-0.323 0.555,0.086 1.09,0.216 1.642,0.303 0.159,0.033 0.531,-0.05 0.823,-0.155 -2.229,-3.93 -6.229,-6.54 -10.798,-6.54 C 6.217,-6.433 2.247,-3.868 0,0"
             style="fill:#002e6b;fill-opacity:1;fill-rule:nonzero;stroke:none"
             id="path456"
             inkscape:connector-curvature="0" />
        </g>
        <g
           id="g458"
           transform="translate(83.9672,454.5252)">
          <path
             d="m 0,0 c 0.258,0.058 0.559,0.118 0.613,0.122 0.13,0.055 0.29,0.047 0.422,0.099 0.15,0.015 0.336,0.084 0.467,-0.018 0.154,-0.092 0.248,-0.36 0.463,-0.268 0.133,0.025 0.293,0.03 0.351,0.184 0.399,0.618 1.25,2.377 1.356,4.102 C 3.691,4.533 3.68,4.874 3.398,5.064 3.167,5.177 2.861,5.124 2.707,5.408 2.714,5.668 2.413,5.768 2.245,5.896 2.132,5.878 2.041,5.91 1.97,5.996 1.956,6.052 1.929,6.119 1.955,6.176 L 2.047,6.303 C 2.069,6.677 2.053,7.103 2.05,7.441 2.066,7.518 2.165,7.534 2.214,7.575 2.327,7.606 2.408,7.534 2.466,7.451 2.947,7.564 3.405,7.722 3.867,7.871 3.926,7.899 3.899,7.958 3.935,7.995 3.967,8.076 4.05,8.087 4.117,8.114 4.2,8.105 4.277,8.053 4.325,7.977 4.322,7.937 4.349,7.887 4.393,7.888 5.281,7.735 6.172,7.599 7.05,7.427 7.154,7.444 7.172,7.581 7.279,7.579 7.372,7.594 7.534,7.564 7.536,7.471 L 7.557,5.702 C 8.323,7.067 8.309,9.161 7.765,10.044 7.286,9.925 6.822,9.736 6.292,9.773 5.888,9.821 5.607,10.171 5.288,10.424 4.813,10.318 4.361,10.156 3.897,10.021 3.833,10.013 3.777,9.989 3.728,9.949 3.732,9.862 3.823,9.766 3.741,9.685 3.611,9.647 3.686,9.505 3.584,9.444 3.535,9.393 3.478,9.356 3.415,9.338 3.355,9.394 3.446,9.522 3.333,9.544 3.256,9.543 3.192,9.582 3.125,9.611 3.063,9.561 3.017,9.46 2.934,9.459 2.89,9.482 2.844,9.491 2.807,9.528 2.673,9.536 2.564,9.495 2.453,9.557 2.482,9.624 2.605,9.672 2.54,9.764 2.49,9.817 2.539,9.884 2.538,9.948 c -0.184,0.104 -0.197,0.304 -0.335,0.439 0.013,0.036 -0.034,0.072 -10e-4,0.093 0.063,-0.009 0.171,-0.061 0.216,0.026 0.055,0.15 0.427,-0.075 0.238,0.196 -0.005,0.08 0.098,0.131 0.044,0.217 -0.041,0.069 -0.105,0.129 -0.12,0.205 0.1,0.055 0.214,0.006 0.297,-0.043 0.082,-0.132 0.237,0.03 0.325,-0.086 C 3.269,10.926 3.3,10.84 3.341,10.757 l 0.043,0.01 c 0.248,0.217 0.515,0.403 0.749,0.629 L 2.987,12.492 C 2.917,12.511 2.911,12.428 2.875,12.397 2.799,12.32 2.679,12.318 2.579,12.337 c -0.041,0.073 -0.107,0.005 -0.16,0.008 -0.08,0.012 -0.203,-0.036 -0.231,0.057 0.076,0.041 0.129,0.128 0.087,0.218 -0.023,0.029 0.006,0.083 -0.044,0.102 -0.053,-0.023 -0.07,0.033 -0.104,0.056 -0.044,0.046 -0.005,0.126 -0.082,0.159 -0.07,0.016 -0.123,-0.035 -0.183,-0.002 0.009,0.076 0.054,0.16 0.124,0.194 0.086,0.065 0.001,0.207 0.134,0.242 0.049,0.03 0.126,-0.009 0.169,0.039 -0.185,0.124 0.176,0.292 -0.094,0.362 -0.014,0.013 -0.031,0.026 -0.024,0.046 0.065,0.081 0.196,0.042 0.286,0.037 0.101,-0.112 0.212,0.092 0.307,-0.04 0.027,-0.026 0.041,-0.056 0.071,-0.079 0.063,0.027 0.075,0.098 0.148,0.105 0.05,0.001 0.114,-0.032 0.147,0.002 0.016,0.057 -0.039,0.159 0.045,0.17 0.213,-0.044 0.093,-0.292 0.268,-0.386 0.118,-0.179 -0.276,-0.313 -0.029,-0.424 l 1.472,-0.702 c -0.248,0.327 -0.436,0.748 -0.278,1.176 -0.014,0.1 -0.115,0.169 -0.13,0.272 -0.032,0.196 0.059,0.391 0.234,0.496 0.182,0.102 0.445,0.069 0.607,-0.053 0.095,-0.135 0.206,0.023 0.32,0.004 0.203,0.023 0.376,-0.022 0.56,-0.036 0.102,0.111 0.255,0.136 0.402,0.108 C 6.745,14.413 6.886,14.275 6.935,14.129 6.978,13.899 6.853,13.708 6.702,13.543 6.683,13.439 6.728,13.337 6.762,13.244 6.789,12.987 6.712,12.773 6.53,12.601 L 6.544,12.555 C 6.71,12.383 6.812,12.177 7.007,12.036 l 0.499,0.142 c -0.196,0.161 -0.475,0.319 -0.531,0.602 -0.083,0.255 0.02,0.493 0.161,0.688 -0.056,0.256 0.014,0.513 0.235,0.653 0.417,0.235 0.945,-0.109 1.368,0.143 0.066,-0.208 -0.035,-0.302 -0.103,-0.409 0.23,0.078 0.656,-0.138 0.897,0.019 C 9.59,13.624 9.482,13.403 9.278,13.251 9.086,13.132 8.79,13.088 8.543,13.133 8.557,13.08 8.645,12.96 8.609,12.913 8.529,12.932 8.455,12.968 8.368,12.967 8.162,12.944 7.97,12.855 7.749,12.902 7.73,12.892 7.743,12.872 7.74,12.856 c 0.21,-0.238 0.564,-0.113 0.834,-0.093 0.366,0.074 0.7,0.139 1.09,0.161 l 0.097,1.449 -0.187,0.409 0.204,10e-4 0.005,0.18 C 9.212,15.096 8.512,15.127 7.944,14.951 7.409,14.841 6.905,14.625 6.322,14.668 5.941,14.74 5.657,15.056 5.354,15.319 5.271,15.318 5.201,15.281 5.125,15.26 4.697,15.128 4.269,14.999 3.837,14.868 3.754,14.82 3.855,14.768 3.839,14.708 3.894,14.572 3.691,14.539 3.706,14.42 3.677,14.323 3.575,14.255 3.482,14.234 3.428,14.283 3.493,14.387 3.419,14.429 3.339,14.432 3.266,14.454 3.202,14.507 3.146,14.466 3.1,14.352 3.01,14.364 2.95,14.36 2.91,14.403 2.86,14.423 2.753,14.411 2.61,14.383 2.516,14.439 c 0.016,0.06 0.089,0.097 0.115,0.151 -0.034,0.069 -0.075,0.165 -0.026,0.239 -0.165,0.122 -0.214,0.314 -0.339,0.466 0.003,0.027 -0.027,0.056 -10e-4,0.08 0.057,-0.006 0.107,-0.032 0.173,-0.021 0.079,0.084 0.189,0.132 0.306,0.093 0.026,0.067 -0.039,0.137 -0.003,0.207 0.118,0.141 -0.066,0.242 -0.094,0.365 0.102,0.065 0.203,-0.014 0.297,-0.043 0.105,-0.118 0.31,0.017 0.392,-0.155 0.027,-0.056 0.038,-0.119 0.082,-0.169 L 3.507,15.7 4.2,16.278 4.186,16.324 3.077,17.364 C 2.976,17.439 2.985,17.263 2.895,17.245 2.806,17.194 2.699,17.193 2.608,17.242 c -0.12,10e-4 -0.252,-0.06 -0.353,0.019 0.003,0.06 0.073,0.064 0.102,0.114 0.006,0.08 -0.012,0.153 -0.039,0.22 -0.217,-0.023 -0.092,0.368 -0.356,0.212 -0.047,0.053 0.022,0.113 0.031,0.17 0.173,0.022 0.027,0.22 0.17,0.265 0.056,0.034 0.13,0.032 0.193,0.049 -0.018,0.063 -0.055,0.136 -0.026,0.207 0.026,0.02 0.039,0.047 0.032,0.08 -0.037,0.053 -0.101,0.065 -0.125,0.125 0.119,0.125 0.28,0.01 0.423,0.015 0.023,0.037 0.083,0.025 0.113,0.012 l 0.128,-0.112 c 0.063,0.087 0.169,0.122 0.286,0.107 0.029,0.05 -0.026,0.146 0.041,0.17 C 3.335,18.89 3.373,18.773 3.404,18.694 3.355,18.57 3.532,18.572 3.52,18.465 3.524,18.345 3.439,18.261 3.373,18.167 l 0.061,-0.056 1.528,-0.738 c -0.264,0.33 -0.452,0.768 -0.277,1.186 -0.042,0.127 -0.166,0.215 -0.151,0.365 0.004,0.157 0.096,0.291 0.221,0.393 0.182,0.122 0.462,0.075 0.63,-0.039 0.069,-0.123 0.177,-0.005 0.264,-0.011 0.206,0.026 0.426,0.019 0.616,-0.025 0.102,0.104 0.245,0.139 0.389,0.108 C 6.811,19.318 6.949,19.17 7.001,19.024 7.078,18.775 6.896,18.603 6.769,18.425 6.748,18.208 6.917,18.03 6.809,17.819 6.812,17.642 6.364,17.503 6.556,17.332 7.162,16.282 9.342,16.097 9.863,16.833 9.152,16.916 8.359,16.481 7.622,16.756 c -0.257,0.096 -0.54,0.303 -0.59,0.596 -0.043,0.246 0.047,0.463 0.175,0.655 -0.046,0.249 -0.006,0.5 0.222,0.642 0.34,0.231 0.74,-0.037 1.119,0.07 0.099,0.008 0.185,0.049 0.275,0.084 C 8.93,18.771 8.815,18.673 8.836,18.6 8.803,18.529 8.767,18.459 8.735,18.392 8.852,18.35 8.976,18.321 9.102,18.303 c 0.191,-0.051 0.28,0.017 0.439,0.065 0.077,-0.398 -0.32,-0.799 -0.873,-0.693 0,0.002 0.105,-0.144 0.075,-0.243 -0.268,0.133 -0.66,-0.03 -0.998,0.046 0.123,-0.337 0.599,-0.26 0.834,-0.198 0.439,0.117 0.878,0.168 1.361,0.177 l 0.038,0.484 -0.304,0.462 2.869,3.488 c 0.045,0.08 -0.065,0.149 -0.093,0.225 -0.106,0.186 -0.018,0.407 0.083,0.564 0.145,0.125 0.14,0.187 0.524,0.176 0,-0.004 0.275,-0.062 0.337,-0.205 0.103,-0.19 0.154,-0.398 -0.017,-0.614 -0.036,-0.05 -0.139,-0.098 -0.068,-0.16 l 2.941,-3.371 -0.341,-0.484 0.108,-1.263 c 0.813,-0.153 1.938,-0.064 2.707,0.211 -0.101,-0.168 -0.402,-0.491 -0.402,-0.491 0,0 0.416,-0.336 0.723,-0.421 -0.801,-0.393 -2.088,-0.437 -2.937,-0.381 0.006,0.003 0.096,-1.043 0.096,-1.043 0.537,0.093 1.648,0.074 2.297,-0.102 0.851,-0.232 1.681,-0.16 2.353,0.198 -0.061,-0.204 -0.136,-0.368 -0.276,-0.576 0.047,-0.053 0.386,-0.253 0.757,-0.344 -1.123,-0.554 -2.634,-0.395 -3.589,-0.17 -0.458,0.084 -1.173,0.031 -1.463,-0.028 0.032,-0.399 0.107,-1.211 0.107,-1.211 l 1.701,0.442 c 0.271,0.068 0.301,-0.241 0.19,-0.278 l -0.024,-0.007 c 0.814,-0.863 1.102,-2.201 0.699,-3.338 -0.285,-0.9 -1.007,-1.708 -1.881,-2.285 1.351,0.18 2.66,0.456 4.007,0.646 C 21.155,7.568 21.239,7.549 21.277,7.47 21.324,7.394 21.289,7.293 21.246,7.23 21.111,7.121 19.956,6.992 18.916,6.804 18.748,6.657 18.689,6.001 18.599,5.737 18.135,5.691 17.782,5.567 17.668,5.349 c -0.202,-0.476 0.04,-0.996 0.179,-1.53 0.372,-1.436 -0.314,-2.703 -1.271,-3.73 0.018,-0.057 0.082,-0.103 0.129,-0.135 0.555,0.08 1.801,0.328 1.801,0.328 0.227,-0.011 0.347,-0.289 0.564,-0.323 0.555,0.086 1.09,0.216 1.642,0.303 0.159,0.033 0.531,-0.05 0.823,-0.155 -2.229,-3.93 -6.229,-6.54 -10.798,-6.54 C 6.217,-6.433 2.247,-3.868 0,0 z"
             style="fill:none;stroke:none"
             id="path460"
             inkscape:connector-curvature="0" />
        </g>
        <g
           id="g462"
           transform="translate(89.4276,473.4039)">
          <path
             d="M 0,0 C 0.229,0.093 0.555,0.1 0.799,0.033 0.835,0.1 0.881,0.161 0.957,0.181 1.054,0.166 1.174,0.187 1.222,0.071 1.254,-0.111 1.149,-0.249 1.011,-0.354 1.13,-0.599 1.151,-0.959 0.961,-1.178 0.881,-1.192 0.809,-1.066 0.744,-1.147 0.758,-1.227 0.773,-1.337 0.737,-1.41 0.688,-1.511 0.575,-1.506 0.475,-1.504 0.431,-1.461 0.374,-1.422 0.38,-1.358 c 0.082,0.081 0.222,0.096 0.284,0.223 0.077,0.204 -0.088,0.362 -0.134,0.545 0.087,-0.029 0.201,-0.094 0.287,-0.02 0.209,0.063 0.03,0.31 0.212,0.383 0.013,0.026 -0.02,0.036 -0.034,0.056 C 0.862,-0.16 0.739,-0.241 0.606,-0.269 0.503,-0.29 0.377,-0.285 0.325,-0.409 0.261,-0.643 0.47,-0.794 0.479,-1.014 0.409,-1.058 0.338,-0.969 0.252,-0.98 0.185,-0.984 0.136,-1.021 0.069,-1.019 c -0.015,0.177 0.143,0.285 0.165,0.449 0.042,0.037 0.015,0.1 0.021,0.15 -0.159,0.205 -0.429,0.178 -0.643,0.265 -0.03,-0.013 -0.023,-0.043 -0.022,-0.067 0.084,-0.092 -0.018,-0.223 0.05,-0.322 0.021,-0.063 0.088,-0.106 0.148,-0.122 0.101,-0.022 0.166,0.032 0.239,0.07 C 0,-0.793 -0.188,-0.952 -0.112,-1.158 -0.038,-1.267 0.072,-1.289 0.176,-1.337 0.17,-1.384 0.151,-1.424 0.118,-1.465 0.069,-1.508 -0.008,-1.523 -0.075,-1.5 c -0.144,0.051 -0.122,0.215 -0.141,0.341 -0.106,-0.018 -0.2,0.014 -0.254,0.1 -0.113,0.226 -0.144,0.575 0.014,0.79 -0.021,0.063 -0.121,0.082 -0.139,0.158 -0.031,0.067 0.005,0.137 0.011,0.207 0.042,0.057 0.099,0.091 0.169,0.092 C -0.249,0.2 -0.121,0.105 0,0 m -2.204,-0.37 c 0.048,-0.176 -0.107,-0.298 -0.212,-0.426 0.018,-0.089 0.131,-0.098 0.195,-0.147 l 1.637,-0.85 c 0.16,-0.005 0.36,0.231 0.48,-0.017 0.069,0.014 0.075,0.09 0.101,0.141 0.164,-0.022 0.286,0.1 0.433,0.005 0.054,-0.043 0.029,-0.18 0.129,-0.138 0.095,0.071 0.17,0.188 0.27,0.246 0.605,-0.962 1.7,-1.311 2.791,-1.165 0.354,0.047 0.547,0.149 0.812,0.268 L 4.353,-3.605 c -0.94,0.242 -1.95,0.042 -2.81,-0.231 -0.349,-0.058 -0.778,-0.133 -1.054,0.137 -0.068,0.079 -0.175,0.141 -0.207,0.237 0.086,0.095 0.343,0.038 0.281,0.23 -0.029,0.15 -0.077,0.289 -0.142,0.422 -0.135,-0.139 -0.235,-0.413 -0.475,-0.406 -0.564,-0.183 -1.125,-0.363 -1.685,-0.557 -0.073,-0.034 -0.181,0.018 -0.24,-0.049 0.015,-0.12 0.106,-0.205 0.084,-0.342 -0.049,-0.054 -0.122,-0.092 -0.192,-0.059 -0.081,0.075 -0.026,0.233 -0.14,0.275 -0.112,-0.108 -0.093,-0.305 -0.259,-0.347 -0.053,0 -0.09,0.039 -0.128,0.079 -0.021,0.136 0.134,0.215 0.19,0.308 -0.121,0.086 -0.42,-0.005 -0.379,0.226 0.022,0.083 0.112,0.061 0.169,0.082 0.106,0.014 0.21,-0.078 0.299,0.003 -0.014,0.104 -0.115,0.169 -0.153,0.262 -0.017,0.026 -0.017,0.076 -10e-4,0.103 0.043,0.034 0.092,0.081 0.149,0.048 0.155,-0.098 0.114,-0.295 0.222,-0.42 0.15,0.032 0.258,0.163 0.387,0.245 0.27,0.223 0.544,0.436 0.825,0.636 0.174,0.182 0.161,0.438 0.265,0.646 0.003,0.037 0.052,0.084 -0.001,0.113 -0.109,-0.107 -0.221,-0.235 -0.316,-0.36 -0.016,-0.017 -0.059,-0.017 -0.08,-0.001 l -1.444,1.265 c -0.139,-0.085 -0.114,-0.257 -0.213,-0.369 -0.069,-0.017 -0.13,0.022 -0.16,0.078 -0.052,0.15 0.124,0.208 0.132,0.335 -0.153,0.025 -0.246,-0.039 -0.376,-0.018 -0.057,0.036 -0.065,0.09 -0.059,0.15 0.126,0.118 0.35,0.014 0.489,0.095 l -0.263,0.284 c -0.021,0.059 0.022,0.103 0.065,0.127 0.209,0.006 0.193,-0.257 0.347,-0.316 0.098,0.115 0.069,0.288 0.202,0.379 0.053,0.018 0.093,-0.018 0.114,-0.055 m 5.302,0.013 C 3.063,-0.487 2.941,-0.46 2.914,-0.71 3.263,-0.567 3.452,-0.862 3.881,-0.787 3.452,-1.231 3.313,-0.878 2.945,-0.986 2.959,-1.063 3.022,-1.125 3.037,-1.201 2.807,-1.237 2.354,-1.231 2.15,-1.13 2.02,-1.132 2.082,-1.291 2.049,-1.371 c 0.019,-0.157 0.094,-0.296 0.235,-0.387 0.56,-0.283 1.34,0.181 2.188,0.108 L 4.459,-1.869 c -0.546,0.01 -1.036,-0.095 -1.555,-0.155 -0.4,-0.015 -0.86,-0.03 -1.051,0.374 -0.228,0.226 -0.044,0.558 0.19,0.758 -0.015,0.144 -0.096,0.306 0.089,0.415 0.199,0.213 0.613,-0.063 0.966,0.12 M 2.991,-4.916 C 2.963,-5.05 2.822,-5.241 2.822,-5.241 3.222,-5.117 3.609,-5.352 3.835,-5.285 3.636,-5.529 3.34,-5.558 3.129,-5.53 2.884,-5.499 2.782,-5.447 2.674,-5.548 2.691,-5.612 2.778,-5.657 2.802,-5.707 2.543,-5.74 2.295,-5.85 2.07,-5.73 1.991,-5.837 2.024,-5.913 2.055,-6.083 2.27,-6.389 2.588,-6.419 2.947,-6.368 c 0.216,0.056 0.448,0.082 0.671,0.121 L 2.61,-6.543 c -0.34,0.029 -0.738,0.099 -0.865,0.464 -0.06,0.259 0.018,0.519 0.231,0.659 -0.121,0.167 -0.031,0.376 0.125,0.458 0.245,0.109 0.614,-0.091 0.89,0.046 m -5.262,-0.326 c 0.052,-0.186 -0.11,-0.314 -0.221,-0.449 0.051,-0.079 0.144,-0.098 0.218,-0.147 l 0.473,-0.244 1.127,-0.583 c 0.176,0.002 0.412,0.224 0.545,-0.021 0.11,0.103 0.184,0.146 0.299,0.162 0.115,-0.007 0.248,-0.056 0.276,-0.171 0.112,0.065 0.211,0.166 0.306,0.267 L 0.799,-6.441 C 0.954,-6.599 1.134,-6.748 1.23,-6.933 L 0.462,-7.151 C 0.208,-7.226 0.341,-7.525 0.523,-7.471 l 0.236,0.064 C 1.26,-7.637 1.778,-8.051 2.104,-8.527 2.111,-8.587 2.041,-8.558 2.015,-8.588 1.526,-8.691 0.87,-8.999 0.426,-8.594 l -0.21,0.214 c -0.007,0.056 0.057,0.034 0.079,0.071 0.073,0.027 0.16,0.028 0.216,0.106 L 0.378,-7.725 0.076,-8.039 c -0.648,-0.214 -1.291,-0.428 -1.938,-0.639 -0.063,-0.018 -0.157,0.034 -0.193,-0.049 0.045,-0.107 0.106,-0.222 0.084,-0.343 -0.053,-0.034 -0.115,-0.084 -0.182,-0.048 -0.075,0.075 -0.066,0.189 -0.117,0.275 -0.05,-0.004 -0.069,-0.061 -0.092,-0.095 -0.042,-0.094 -0.077,-0.231 -0.204,-0.252 -0.05,0.006 -0.1,0.042 -0.124,0.088 -0.018,0.133 0.147,0.195 0.199,0.299 -0.063,0.053 -0.16,0.038 -0.24,0.057 -0.057,0.003 -0.11,0.026 -0.148,0.079 -0.021,0.069 0.022,0.123 0.065,0.16 0.129,0.035 0.253,-0.017 0.39,0.005 0.036,0.014 0.026,0.06 0.009,0.08 -0.055,0.096 -0.189,0.178 -0.141,0.305 0.036,0.06 0.123,0.035 0.173,0.025 0.108,-0.105 0.1,-0.262 0.165,-0.388 0.064,-0.045 0.129,0.042 0.193,0.063 l 0.94,0.731 c 0.318,0.134 0.221,0.496 0.381,0.724 0,0.037 0.049,0.084 -0.001,0.113 -0.139,-0.108 -0.227,-0.256 -0.352,-0.38 l -1.489,1.284 c -0.063,0.03 -0.062,-0.044 -0.092,-0.067 -0.026,-0.101 -0.061,-0.198 -0.11,-0.288 -0.03,-0.017 -0.083,-0.018 -0.113,-0.002 -0.071,0.039 -0.085,0.116 -0.062,0.183 0.022,0.083 0.194,0.152 0.1,0.241 -0.133,0.005 -0.302,-0.127 -0.4,0.018 -0.001,0.06 -0.008,0.137 0.068,0.138 0.063,0.017 0.15,0.018 0.217,0.002 0.046,0.014 0.12,-0.011 0.17,0.013 0.046,0.02 0.012,0.06 -0.001,0.079 -0.082,0.096 -0.269,0.177 -0.231,0.321 0.039,0.044 0.106,0.058 0.16,0.035 0.107,-0.092 0.129,-0.252 0.253,-0.307 0.089,0.121 0.09,0.285 0.215,0.379 0.044,0.014 0.074,-0.009 0.101,-0.042 m 2.204,0.357 c 0.223,0.092 0.546,0.083 0.776,0.023 0.077,0.034 0.072,0.154 0.172,0.161 0.11,0.012 0.213,-0.02 0.274,-0.113 C 1.194,-4.997 1.073,-5.135 0.954,-5.239 1.06,-5.478 1.078,-5.868 0.884,-6.063 0.808,-6.071 0.756,-5.941 0.677,-6.019 0.672,-6.129 0.699,-6.209 0.661,-6.306 0.602,-6.396 0.488,-6.394 0.398,-6.376 0.355,-6.343 0.317,-6.29 0.316,-6.23 c 0.093,0.078 0.262,0.12 0.294,0.267 0.035,0.144 -0.063,0.259 -0.098,0.388 -0.017,0.034 -0.058,0.073 -0.035,0.113 0.064,-0.052 0.148,-0.088 0.231,-0.054 0.155,0.052 0.174,0.202 0.189,0.346 0.023,0.027 0.056,0.051 0.068,0.081 C 0.858,-5.004 0.749,-5.105 0.646,-5.126 0.507,-5.158 0.353,-5.15 0.258,-5.281 0.178,-5.525 0.406,-5.682 0.402,-5.896 0.31,-5.934 0.215,-5.818 0.106,-5.876 0.066,-5.88 0.029,-5.92 -0.008,-5.891 c 0.015,0.187 0.177,0.316 0.211,0.496 -0.001,0.08 -0.029,0.156 -0.106,0.192 -0.177,0.071 -0.361,0.129 -0.552,0.167 -0.072,-0.045 0.008,-0.107 0.016,-0.16 -0.019,-0.097 -0.021,-0.214 0.047,-0.286 0.05,-0.053 0.114,-0.075 0.184,-0.078 0.067,-0.002 0.109,0.051 0.159,0.082 0.02,-0.016 0.011,-0.067 0.001,-0.093 -0.065,-0.158 -0.253,-0.337 -0.097,-0.515 0.077,-0.069 0.171,-0.097 0.255,-0.146 -0.013,-0.061 -0.059,-0.114 -0.112,-0.148 -0.043,-0.018 -0.106,-0.018 -0.149,-0.002 -0.251,0.037 0.044,0.453 -0.278,0.35 -0.215,0.15 -0.225,0.457 -0.182,0.707 0.019,0.064 0.065,0.117 0.078,0.184 -0.087,0.046 -0.128,0.135 -0.14,0.225 -0.001,0.08 0.032,0.157 0.101,0.198 0.189,0.066 0.364,-0.042 0.505,-0.167"
             style="fill:#cdb24e;fill-opacity:1;fill-rule:evenodd;stroke:none"
             id="path464"
             inkscape:connector-curvature="0" />
        </g>
        <g
           id="g466"
           transform="translate(89.4276,473.4039)">
          <path
             d="M 0,0 C 0.229,0.093 0.555,0.1 0.799,0.033 0.835,0.1 0.881,0.161 0.957,0.181 1.054,0.166 1.174,0.187 1.222,0.071 1.254,-0.111 1.149,-0.249 1.011,-0.354 1.13,-0.599 1.151,-0.959 0.961,-1.178 0.881,-1.192 0.809,-1.066 0.744,-1.147 0.758,-1.227 0.773,-1.337 0.737,-1.41 0.688,-1.511 0.575,-1.506 0.475,-1.504 0.431,-1.461 0.374,-1.422 0.38,-1.358 c 0.082,0.081 0.222,0.096 0.284,0.223 0.077,0.204 -0.088,0.362 -0.134,0.545 0.087,-0.029 0.201,-0.094 0.287,-0.02 0.209,0.063 0.03,0.31 0.212,0.383 0.013,0.026 -0.02,0.036 -0.034,0.056 C 0.862,-0.16 0.739,-0.241 0.606,-0.269 0.503,-0.29 0.377,-0.285 0.325,-0.409 0.261,-0.643 0.47,-0.794 0.479,-1.014 0.409,-1.058 0.338,-0.969 0.252,-0.98 0.185,-0.984 0.136,-1.021 0.069,-1.019 c -0.015,0.177 0.143,0.285 0.165,0.449 0.042,0.037 0.015,0.1 0.021,0.15 -0.159,0.205 -0.429,0.178 -0.643,0.265 -0.03,-0.013 -0.023,-0.043 -0.022,-0.067 0.084,-0.092 -0.018,-0.223 0.05,-0.322 0.021,-0.063 0.088,-0.106 0.148,-0.122 0.101,-0.022 0.166,0.032 0.239,0.07 C 0,-0.793 -0.188,-0.952 -0.112,-1.158 -0.038,-1.267 0.072,-1.289 0.176,-1.337 0.17,-1.384 0.151,-1.424 0.118,-1.465 0.069,-1.508 -0.008,-1.523 -0.075,-1.5 c -0.144,0.051 -0.122,0.215 -0.141,0.341 -0.106,-0.018 -0.2,0.014 -0.254,0.1 -0.113,0.226 -0.144,0.575 0.014,0.79 -0.021,0.063 -0.121,0.082 -0.139,0.158 -0.031,0.067 0.005,0.137 0.011,0.207 0.042,0.057 0.099,0.091 0.169,0.092 C -0.249,0.2 -0.121,0.105 0,0 z m -2.204,-0.37 c 0.048,-0.176 -0.107,-0.298 -0.212,-0.426 0.018,-0.089 0.131,-0.098 0.195,-0.147 l 1.637,-0.85 c 0.16,-0.005 0.36,0.231 0.48,-0.017 0.069,0.014 0.075,0.09 0.101,0.141 0.164,-0.022 0.286,0.1 0.433,0.005 0.054,-0.043 0.029,-0.18 0.129,-0.138 0.095,0.071 0.17,0.188 0.27,0.246 0.605,-0.962 1.7,-1.311 2.791,-1.165 0.354,0.047 0.547,0.149 0.812,0.268 L 4.353,-3.605 c -0.94,0.242 -1.95,0.042 -2.81,-0.231 -0.349,-0.058 -0.778,-0.133 -1.054,0.137 -0.068,0.079 -0.175,0.141 -0.207,0.237 0.086,0.095 0.343,0.038 0.281,0.23 -0.029,0.15 -0.077,0.289 -0.142,0.422 -0.135,-0.139 -0.235,-0.413 -0.475,-0.406 -0.564,-0.183 -1.125,-0.363 -1.685,-0.557 -0.073,-0.034 -0.181,0.018 -0.24,-0.049 0.015,-0.12 0.106,-0.205 0.084,-0.342 -0.049,-0.054 -0.122,-0.092 -0.192,-0.059 -0.081,0.075 -0.026,0.233 -0.14,0.275 -0.112,-0.108 -0.093,-0.305 -0.259,-0.347 -0.053,0 -0.09,0.039 -0.128,0.079 -0.021,0.136 0.134,0.215 0.19,0.308 -0.121,0.086 -0.42,-0.005 -0.379,0.226 0.022,0.083 0.112,0.061 0.169,0.082 0.106,0.014 0.21,-0.078 0.299,0.003 -0.014,0.104 -0.115,0.169 -0.153,0.262 -0.017,0.026 -0.017,0.076 -10e-4,0.103 0.043,0.034 0.092,0.081 0.149,0.048 0.155,-0.098 0.114,-0.295 0.222,-0.42 0.15,0.032 0.258,0.163 0.387,0.245 0.27,0.223 0.544,0.436 0.825,0.636 0.174,0.182 0.161,0.438 0.265,0.646 0.003,0.037 0.052,0.084 -0.001,0.113 -0.109,-0.107 -0.221,-0.235 -0.316,-0.36 -0.016,-0.017 -0.059,-0.017 -0.08,-0.001 l -1.444,1.265 c -0.139,-0.085 -0.114,-0.257 -0.213,-0.369 -0.069,-0.017 -0.13,0.022 -0.16,0.078 -0.052,0.15 0.124,0.208 0.132,0.335 -0.153,0.025 -0.246,-0.039 -0.376,-0.018 -0.057,0.036 -0.065,0.09 -0.059,0.15 0.126,0.118 0.35,0.014 0.489,0.095 l -0.263,0.284 c -0.021,0.059 0.022,0.103 0.065,0.127 0.209,0.006 0.193,-0.257 0.347,-0.316 0.098,0.115 0.069,0.288 0.202,0.379 0.053,0.018 0.093,-0.018 0.114,-0.055 z m 5.302,0.013 C 3.063,-0.487 2.941,-0.46 2.914,-0.71 3.263,-0.567 3.452,-0.862 3.881,-0.787 3.452,-1.231 3.313,-0.878 2.945,-0.986 2.959,-1.063 3.022,-1.125 3.037,-1.201 2.807,-1.237 2.354,-1.231 2.15,-1.13 2.02,-1.132 2.082,-1.291 2.049,-1.371 c 0.019,-0.157 0.094,-0.296 0.235,-0.387 0.56,-0.283 1.34,0.181 2.188,0.108 L 4.459,-1.869 c -0.546,0.01 -1.036,-0.095 -1.555,-0.155 -0.4,-0.015 -0.86,-0.03 -1.051,0.374 -0.228,0.226 -0.044,0.558 0.19,0.758 -0.015,0.144 -0.096,0.306 0.089,0.415 0.199,0.213 0.613,-0.063 0.966,0.12 z M 2.991,-4.916 C 2.963,-5.05 2.822,-5.241 2.822,-5.241 3.222,-5.117 3.609,-5.352 3.835,-5.285 3.636,-5.529 3.34,-5.558 3.129,-5.53 2.884,-5.499 2.782,-5.447 2.674,-5.548 2.691,-5.612 2.778,-5.657 2.802,-5.707 2.543,-5.74 2.295,-5.85 2.07,-5.73 1.991,-5.837 2.024,-5.913 2.055,-6.083 2.27,-6.389 2.588,-6.419 2.947,-6.368 c 0.216,0.056 0.448,0.082 0.671,0.121 L 2.61,-6.543 c -0.34,0.029 -0.738,0.099 -0.865,0.464 -0.06,0.259 0.018,0.519 0.231,0.659 -0.121,0.167 -0.031,0.376 0.125,0.458 0.245,0.109 0.614,-0.091 0.89,0.046 z m -5.262,-0.326 c 0.052,-0.186 -0.11,-0.314 -0.221,-0.449 0.051,-0.079 0.144,-0.098 0.218,-0.147 l 0.473,-0.244 1.127,-0.583 c 0.176,0.002 0.412,0.224 0.545,-0.021 0.11,0.103 0.184,0.146 0.299,0.162 0.115,-0.007 0.248,-0.056 0.276,-0.171 0.112,0.065 0.211,0.166 0.306,0.267 L 0.799,-6.441 C 0.954,-6.599 1.134,-6.748 1.23,-6.933 L 0.462,-7.151 C 0.208,-7.226 0.341,-7.525 0.523,-7.471 l 0.236,0.064 C 1.26,-7.637 1.778,-8.051 2.104,-8.527 2.111,-8.587 2.041,-8.558 2.015,-8.588 1.526,-8.691 0.87,-8.999 0.426,-8.594 l -0.21,0.214 c -0.007,0.056 0.057,0.034 0.079,0.071 0.073,0.027 0.16,0.028 0.216,0.106 L 0.378,-7.725 0.076,-8.039 c -0.648,-0.214 -1.291,-0.428 -1.938,-0.639 -0.063,-0.018 -0.157,0.034 -0.193,-0.049 0.045,-0.107 0.106,-0.222 0.084,-0.343 -0.053,-0.034 -0.115,-0.084 -0.182,-0.048 -0.075,0.075 -0.066,0.189 -0.117,0.275 -0.05,-0.004 -0.069,-0.061 -0.092,-0.095 -0.042,-0.094 -0.077,-0.231 -0.204,-0.252 -0.05,0.006 -0.1,0.042 -0.124,0.088 -0.018,0.133 0.147,0.195 0.199,0.299 -0.063,0.053 -0.16,0.038 -0.24,0.057 -0.057,0.003 -0.11,0.026 -0.148,0.079 -0.021,0.069 0.022,0.123 0.065,0.16 0.129,0.035 0.253,-0.017 0.39,0.005 0.036,0.014 0.026,0.06 0.009,0.08 -0.055,0.096 -0.189,0.178 -0.141,0.305 0.036,0.06 0.123,0.035 0.173,0.025 0.108,-0.105 0.1,-0.262 0.165,-0.388 0.064,-0.045 0.129,0.042 0.193,0.063 l 0.94,0.731 c 0.318,0.134 0.221,0.496 0.381,0.724 0,0.037 0.049,0.084 -0.001,0.113 -0.139,-0.108 -0.227,-0.256 -0.352,-0.38 l -1.489,1.284 c -0.063,0.03 -0.062,-0.044 -0.092,-0.067 -0.026,-0.101 -0.061,-0.198 -0.11,-0.288 -0.03,-0.017 -0.083,-0.018 -0.113,-0.002 -0.071,0.039 -0.085,0.116 -0.062,0.183 0.022,0.083 0.194,0.152 0.1,0.241 -0.133,0.005 -0.302,-0.127 -0.4,0.018 -0.001,0.06 -0.008,0.137 0.068,0.138 0.063,0.017 0.15,0.018 0.217,0.002 0.046,0.014 0.12,-0.011 0.17,0.013 0.046,0.02 0.012,0.06 -0.001,0.079 -0.082,0.096 -0.269,0.177 -0.231,0.321 0.039,0.044 0.106,0.058 0.16,0.035 0.107,-0.092 0.129,-0.252 0.253,-0.307 0.089,0.121 0.09,0.285 0.215,0.379 0.044,0.014 0.074,-0.009 0.101,-0.042 z m 2.204,0.357 c 0.223,0.092 0.546,0.083 0.776,0.023 0.077,0.034 0.072,0.154 0.172,0.161 0.11,0.012 0.213,-0.02 0.274,-0.113 C 1.194,-4.997 1.073,-5.135 0.954,-5.239 1.06,-5.478 1.078,-5.868 0.884,-6.063 0.808,-6.071 0.756,-5.941 0.677,-6.019 0.672,-6.129 0.699,-6.209 0.661,-6.306 0.602,-6.396 0.488,-6.394 0.398,-6.376 0.355,-6.343 0.317,-6.29 0.316,-6.23 c 0.093,0.078 0.262,0.12 0.294,0.267 0.035,0.144 -0.063,0.259 -0.098,0.388 -0.017,0.034 -0.058,0.073 -0.035,0.113 0.064,-0.052 0.148,-0.088 0.231,-0.054 0.155,0.052 0.174,0.202 0.189,0.346 0.023,0.027 0.056,0.051 0.068,0.081 C 0.858,-5.004 0.749,-5.105 0.646,-5.126 0.507,-5.158 0.353,-5.15 0.258,-5.281 0.178,-5.525 0.406,-5.682 0.402,-5.896 0.31,-5.934 0.215,-5.818 0.106,-5.876 0.066,-5.88 0.029,-5.92 -0.008,-5.891 c 0.015,0.187 0.177,0.316 0.211,0.496 -0.001,0.08 -0.029,0.156 -0.106,0.192 -0.177,0.071 -0.361,0.129 -0.552,0.167 -0.072,-0.045 0.008,-0.107 0.016,-0.16 -0.019,-0.097 -0.021,-0.214 0.047,-0.286 0.05,-0.053 0.114,-0.075 0.184,-0.078 0.067,-0.002 0.109,0.051 0.159,0.082 0.02,-0.016 0.011,-0.067 0.001,-0.093 -0.065,-0.158 -0.253,-0.337 -0.097,-0.515 0.077,-0.069 0.171,-0.097 0.255,-0.146 -0.013,-0.061 -0.059,-0.114 -0.112,-0.148 -0.043,-0.018 -0.106,-0.018 -0.149,-0.002 -0.251,0.037 0.044,0.453 -0.278,0.35 -0.215,0.15 -0.225,0.457 -0.182,0.707 0.019,0.064 0.065,0.117 0.078,0.184 -0.087,0.046 -0.128,0.135 -0.14,0.225 -0.001,0.08 0.032,0.157 0.101,0.198 0.189,0.066 0.364,-0.042 0.505,-0.167 z"
             style="fill:none;stroke:none"
             id="path468"
             inkscape:connector-curvature="0" />
        </g>
        <g
           id="g470"
           transform="translate(98.1177,448.6103)">
          <path
             d="M 0,0 C -0.113,-0.008 -0.211,-0.046 -0.294,-0.01 -0.451,0.119 -0.617,0.275 -0.841,0.196 -1.274,0.099 -1.709,0.02 -2.146,-0.053 -2.282,-0.02 -2.42,-0.025 -2.489,0.126 -2.518,0.202 -2.466,0.268 -2.404,0.297 -1.82,0.418 -1.233,0.543 -0.647,0.65 -0.323,0.643 -0.142,0.355 0.069,0.156 0.094,0.091 0.068,0.024 0,0 M -0.052,1.999 C -0.165,1.991 -0.262,1.953 -0.346,1.989 -0.503,2.118 -0.669,2.274 -0.893,2.195 -1.326,2.098 -1.76,2.019 -2.198,1.946 c -0.136,0.033 -0.274,0.028 -0.343,0.179 -0.029,0.076 0.023,0.142 0.086,0.171 0.583,0.121 1.17,0.246 1.756,0.353 C -0.374,2.642 -0.193,2.354 0.017,2.156 0.042,2.09 0.016,2.023 -0.052,1.999 M 2.389,0.963 C 2.276,0.955 2.179,0.917 2.095,0.953 1.938,1.081 1.772,1.238 1.548,1.158 1.115,1.062 0.681,0.982 0.243,0.91 0.107,0.942 -0.03,0.938 -0.1,1.088 -0.128,1.165 -0.077,1.23 -0.014,1.26 0.569,1.38 1.156,1.506 1.742,1.613 2.067,1.606 2.248,1.318 2.458,1.119 2.483,1.053 2.457,0.986 2.389,0.963 M 2.45,2.972 C 2.337,2.964 2.239,2.926 2.156,2.962 1.999,3.09 1.832,3.247 1.609,3.168 1.176,3.071 0.741,2.991 0.303,2.919 0.168,2.951 0.03,2.947 -0.039,3.097 -0.068,3.174 -0.016,3.239 0.046,3.269 0.629,3.389 1.217,3.515 1.803,3.622 2.127,3.615 2.308,3.327 2.519,3.128 2.544,3.063 2.518,2.995 2.45,2.972 M 2.437,4.904 C 2.323,4.897 2.226,4.858 2.142,4.894 1.985,5.023 1.819,5.18 1.595,5.1 1.162,5.003 0.728,4.924 0.29,4.852 0.154,4.884 0.017,4.879 -0.053,5.03 -0.081,5.106 -0.029,5.172 0.033,5.201 0.616,5.322 1.203,5.447 1.79,5.554 2.114,5.547 2.295,5.259 2.505,5.061 2.53,4.995 2.504,4.928 2.437,4.904 M -0.086,3.953 C -0.199,3.946 -0.296,3.907 -0.38,3.943 -0.537,4.072 -0.703,4.229 -0.927,4.149 -1.36,4.052 -1.794,3.973 -2.232,3.901 c -0.136,0.032 -0.274,0.028 -0.343,0.178 -0.029,0.077 0.023,0.142 0.086,0.171 0.583,0.121 1.17,0.246 1.756,0.353 C -0.408,4.596 -0.227,4.309 -0.017,4.11 0.008,4.044 -0.018,3.977 -0.086,3.953 M -2.459,4.884 C -2.572,4.876 -2.669,4.838 -2.753,4.874 -2.91,5.002 -3.076,5.159 -3.3,5.08 -3.733,4.983 -4.167,4.903 -4.605,4.831 c -0.136,0.032 -0.274,0.028 -0.343,0.178 -0.029,0.077 0.023,0.142 0.086,0.172 0.583,0.12 1.17,0.246 1.756,0.353 C -2.781,5.527 -2.6,5.239 -2.39,5.04 -2.365,4.974 -2.391,4.907 -2.459,4.884 M -7.321,4.874 C -7.434,4.867 -7.532,4.828 -7.615,4.864 -7.772,4.993 -7.939,5.15 -8.162,5.07 -8.595,4.973 -9.03,4.894 -9.468,4.822 -9.603,4.854 -9.741,4.85 -9.81,5 c -0.029,0.077 0.023,0.142 0.085,0.171 0.583,0.121 1.171,0.246 1.757,0.353 C -7.644,5.517 -7.463,5.23 -7.252,5.031 -7.227,4.965 -7.253,4.898 -7.321,4.874 M -7.295,2.919 C -7.408,2.911 -7.505,2.873 -7.589,2.909 -7.746,3.038 -7.912,3.195 -8.136,3.115 -8.569,3.018 -9.003,2.939 -9.441,2.867 c -0.136,0.032 -0.273,0.027 -0.343,0.178 -0.028,0.076 0.023,0.142 0.086,0.171 0.583,0.121 1.17,0.246 1.756,0.353 C -7.617,3.562 -7.436,3.274 -7.226,3.076 -7.201,3.01 -7.227,2.943 -7.295,2.919 M -7.252,0.923 C -7.365,0.915 -7.462,0.876 -7.546,0.912 -7.703,1.041 -7.869,1.198 -8.093,1.118 -8.526,1.022 -8.96,0.942 -9.398,0.87 c -0.136,0.032 -0.274,0.028 -0.343,0.178 -0.028,0.077 0.023,0.142 0.086,0.171 0.583,0.121 1.17,0.246 1.756,0.354 0.325,-0.008 0.506,-0.295 0.716,-0.494 0.025,-0.066 -0.001,-0.133 -0.069,-0.156 m 2.495,-0.925 c -0.113,-0.007 -0.21,-0.046 -0.294,-0.01 -0.157,0.129 -0.323,0.286 -0.547,0.206 -0.433,-0.097 -0.867,-0.176 -1.305,-0.248 -0.136,0.032 -0.273,0.028 -0.343,0.178 -0.028,0.077 0.023,0.142 0.086,0.171 0.583,0.121 1.17,0.246 1.756,0.353 0.325,-0.007 0.506,-0.294 0.716,-0.493 0.025,-0.066 -0.001,-0.133 -0.069,-0.157 M -4.918,2.034 C -5.032,2.026 -5.129,1.988 -5.213,2.024 -5.37,2.152 -5.536,2.309 -5.76,2.229 -6.193,2.133 -6.627,2.053 -7.065,1.981 c -0.136,0.032 -0.273,0.028 -0.343,0.178 -0.028,0.077 0.024,0.142 0.086,0.172 0.583,0.12 1.17,0.246 1.757,0.353 C -5.241,2.677 -5.06,2.389 -4.85,2.19 -4.825,2.124 -4.851,2.057 -4.918,2.034 M -4.943,4.007 C -5.056,3.999 -5.154,3.961 -5.237,3.997 -5.394,4.125 -5.561,4.282 -5.784,4.203 -6.218,4.106 -6.652,4.026 -7.09,3.954 -7.225,3.986 -7.363,3.982 -7.432,4.132 -7.461,4.209 -7.409,4.274 -7.347,4.304 -6.764,4.424 -6.176,4.55 -5.59,4.657 -5.266,4.65 -5.085,4.362 -4.874,4.163 -4.85,4.097 -4.875,4.03 -4.943,4.007 M -2.447,2.922 C -2.56,2.914 -2.658,2.876 -2.741,2.912 -2.898,3.04 -3.064,3.197 -3.288,3.118 -3.721,3.021 -4.156,2.942 -4.593,2.869 c -0.136,0.032 -0.274,0.028 -0.343,0.179 -0.029,0.076 0.023,0.141 0.085,0.171 0.584,0.12 1.171,0.246 1.757,0.353 C -2.77,3.565 -2.589,3.277 -2.378,3.078 -2.353,3.013 -2.379,2.945 -2.447,2.922 M -9.765,2.055 c -0.114,-0.008 -0.211,-0.046 -0.295,-0.01 -0.157,0.128 -0.323,0.285 -0.547,0.206 -0.433,-0.097 -0.72,-0.138 -0.72,-0.138 l -0.402,0.324 c 0,0 0.731,0.161 1.317,0.268 0.324,-0.007 0.505,-0.295 0.715,-0.494 0.025,-0.065 -0.001,-0.133 -0.068,-0.156 m 0.068,1.917 C -9.81,3.964 -9.908,3.926 -9.992,3.962 c -0.157,0.128 -0.323,0.285 -0.547,0.205 -0.433,-0.096 -0.867,-0.176 -1.305,-0.248 -0.135,0.032 -0.273,0.028 -0.343,0.178 -0.028,0.077 0.024,0.142 0.086,0.172 0.583,0.12 1.171,0.246 1.757,0.353 0.324,-0.007 0.505,-0.295 0.715,-0.494 0.025,-0.066 0,-0.133 -0.068,-0.156 m 14.59,0.04 C 4.78,4.005 4.682,3.966 4.599,4.002 4.442,4.131 4.276,4.288 4.052,4.208 3.619,4.111 3.184,4.032 2.747,3.96 2.611,3.992 2.473,3.988 2.404,4.138 2.375,4.214 2.427,4.28 2.489,4.309 3.073,4.43 3.66,4.555 4.246,4.662 4.57,4.655 4.751,4.368 4.962,4.169 4.987,4.103 4.961,4.036 4.893,4.012 M 4.662,1.92 C 4.505,2.048 4.34,2.204 4.116,2.124 3.683,2.027 3.249,1.948 2.811,1.876 2.675,1.908 2.538,1.904 2.468,2.054 2.44,2.131 2.492,2.196 2.554,2.225 3.137,2.346 3.724,2.471 4.311,2.578 4.635,2.571 4.781,2.319 4.992,2.12 l -0.33,-0.2 z m -16.903,3.002 c -0.113,-0.007 -0.211,-0.046 -0.294,-0.01 -0.157,0.129 -0.324,0.286 -0.547,0.206 -0.434,-0.097 -0.85,-0.158 -0.85,-0.158 l -0.254,0.348 c 0,0 0.712,0.157 1.298,0.264 0.324,-0.007 0.505,-0.294 0.716,-0.493 0.024,-0.066 -10e-4,-0.133 -0.069,-0.157 M 7.241,4.903 C 7.128,4.895 7.03,4.857 6.947,4.893 6.79,5.021 6.623,5.178 6.4,5.099 5.967,5.002 5.532,4.923 5.094,4.85 4.959,4.883 4.821,4.878 4.752,5.029 4.723,5.105 4.775,5.171 4.837,5.2 5.42,5.321 6.008,5.446 6.594,5.553 6.918,5.546 7.099,5.258 7.31,5.059 7.335,4.994 7.309,4.927 7.241,4.903 M -2.43,0.98 C -2.543,0.973 -2.641,0.934 -2.724,0.97 -2.881,1.099 -3.048,1.256 -3.271,1.176 -3.704,1.079 -4.139,1 -4.577,0.928 -4.712,0.96 -4.85,0.955 -4.919,1.106 -4.948,1.182 -4.896,1.248 -4.834,1.277 -4.251,1.398 -3.663,1.523 -3.077,1.63 -2.753,1.623 -2.572,1.336 -2.361,1.137 -2.336,1.071 -2.362,1.004 -2.43,0.98"
             style="fill:#ffffff;fill-opacity:1;fill-rule:evenodd;stroke:none"
             id="path472"
             inkscape:connector-curvature="0" />
        </g>
        <g
           id="g474"
           transform="translate(89.4994,471.4609)">
          <path
             d="M 0,0 C 0.197,-0.051 0.417,-0.012 0.572,0.11 0.622,0.064 0.573,0.004 0.574,-0.05 0.545,-0.183 0.424,-0.308 0.291,-0.34 0.105,-0.392 -0.056,-0.321 -0.191,-0.209 -0.279,-0.11 -0.333,0.013 -0.312,0.143 -0.208,0.094 -0.114,0.022 0,0"
             style="fill:#002e6b;fill-opacity:1;fill-rule:nonzero;stroke:none"
             id="path476"
             inkscape:connector-curvature="0" />
        </g>
        <g
           id="g478"
           transform="translate(89.4994,471.4609)">
          <path
             d="M 0,0 C 0.197,-0.051 0.417,-0.012 0.572,0.11 0.622,0.064 0.573,0.004 0.574,-0.05 0.545,-0.183 0.424,-0.308 0.291,-0.34 0.105,-0.392 -0.056,-0.321 -0.191,-0.209 -0.279,-0.11 -0.333,0.013 -0.312,0.143 -0.208,0.094 -0.114,0.022 0,0 z"
             style="fill:none;stroke:none"
             id="path480"
             inkscape:connector-curvature="0" />
        </g>
        <g
           id="g482"
           transform="translate(89.8125,466.5937)">
          <path
             d="m 0,0 c 0.066,0.031 0.129,0.075 0.202,0.092 0.002,-0.156 -0.039,-0.31 -0.175,-0.402 -0.119,-0.061 -0.295,-0.086 -0.423,-0.028 -0.14,0.072 -0.279,0.19 -0.304,0.353 l 0.012,0.113 C -0.493,0.004 -0.249,-0.073 0,0"
             style="fill:#002e6b;fill-opacity:1;fill-rule:nonzero;stroke:none"
             id="path484"
             inkscape:connector-curvature="0" />
        </g>
        <g
           id="g486"
           transform="translate(89.8125,466.5937)">
          <path
             d="m 0,0 c 0.066,0.031 0.129,0.075 0.202,0.092 0.002,-0.156 -0.039,-0.31 -0.175,-0.402 -0.119,-0.061 -0.295,-0.086 -0.423,-0.028 -0.14,0.072 -0.279,0.19 -0.304,0.353 l 0.012,0.113 C -0.493,0.004 -0.249,-0.073 0,0 z"
             style="fill:none;stroke:none"
             id="path488"
             inkscape:connector-curvature="0" />
        </g>
        <g
           id="g490"
           transform="translate(87.5908,461.8396)">
          <path
             d="M 0,0 0.006,-0.471 -0.379,-0.589 -0.376,-0.12 0,0 z m 2.532,-0.187 0.002,-0.478 -0.54,0.097 -0.004,0.48 0.542,-0.099 z m -3.327,-0.074 0.004,-0.464 -0.34,-0.123 0.013,0.473 0.323,0.114 z M 3.46,-0.35 3.456,-0.828 2.979,-0.737 2.975,-0.256 3.46,-0.35 z m 11.311,-0.242 -0.124,-0.529 -0.48,-0.083 -0.017,0.516 0.621,0.096 z m -14.324,-0.532 -1.045,-0.32 -0.296,0.199 1.234,0.394 0.107,-0.273 z m 3.021,-0.169 0.006,-0.254 c 0,0 -2.26,0.363 -2.467,0.397 -0.078,0.089 -0.161,0.316 -0.161,0.316 l 2.622,-0.459 z m 10.341,0.035 -0.618,-0.104 -0.009,0.526 0.611,0.093 0.016,-0.515 z m -0.967,0.366 0.006,-0.517 -0.525,-0.082 -0.007,0.522 0.526,0.077 z m -1.016,-0.15 0.018,-0.573 -0.525,-0.086 c 0,0 -0.167,0.188 -0.267,0.273 0.039,0.092 0.083,0.2 0.122,0.291 l 0.652,0.095 z M 2.114,-1.776 C 2.336,-2.19 2.557,-2.604 2.862,-2.98 2.801,-3.207 2.724,-3.425 2.627,-3.636 c -0.463,0.478 -0.799,0.997 -1.036,1.554 0.019,0.123 0.001,0.26 0.053,0.367 0.156,-0.022 0.316,-0.03 0.47,-0.061 m 9.336,-0.53 c -0.213,-0.316 -0.399,-0.641 -0.672,-0.935 -0.132,0.429 -0.357,0.721 -0.357,0.721 0.173,0.265 0.365,0.572 0.498,0.85 L 11.45,-2.306 z M 3.329,-1.935 C 3.281,-2.129 3.163,-2.293 3.082,-2.474 2.91,-2.29 2.789,-2.045 2.676,-1.843 c 0,0 0.446,-0.058 0.653,-0.092 m 10.29,0.125 c 10e-4,-0.09 -0.058,-0.154 -0.067,-0.241 -0.122,-0.388 0.116,-0.782 0.048,-1.156 -0.092,-0.498 -0.279,-0.919 -0.591,-1.296 -0.114,0.427 -0.234,0.6 -0.387,0.885 0.44,0.75 0.645,1.214 0.838,1.758 l 0.159,0.05 z M 3.626,-1.978 C 3.834,-2.362 4.121,-2.715 4.439,-3.054 4.368,-3.268 4.317,-3.489 4.23,-3.696 l -0.047,0.012 c -0.34,0.276 -0.684,0.612 -0.938,0.959 0,0 0.21,0.549 0.348,0.747 l 0.033,0 z m 9.328,0.056 c -0.155,-0.408 -0.35,-0.803 -0.578,-1.183 l -0.465,0.658 -10e-4,0.056 0.19,0.332 c 0.268,0.08 0.568,0.091 0.844,0.151 l 0.01,-0.014 z m -0.735,-1.461 c -0.251,-0.406 -0.553,-0.796 -0.902,-1.164 -0.159,0.346 -0.15,0.434 -0.353,0.805 0.022,0.091 0.607,0.781 0.79,1.076 l 0.465,-0.717 z M 1.546,-2.996 c 0.255,-0.41 0.566,-0.793 0.907,-1.168 -0.036,-0.267 -0.14,-0.508 -0.197,-0.769 -0.344,0.342 -0.555,0.726 -0.733,1.124 -0.037,0.269 0,0.543 0,0.813 l 0.023,0 z M 4.1,-4.211 C 4.036,-4.412 4.022,-4.628 3.934,-4.819 c -0.393,0.245 -1.133,0.955 -1.133,0.955 0.061,0.217 0.14,0.442 0.234,0.646 L 4.1,-4.211 z M 5.822,-3.95 C 5.809,-4.17 5.778,-4.387 5.727,-4.591 5.269,-4.443 4.856,-4.172 4.449,-3.887 4.405,-3.814 4.566,-3.372 4.624,-3.222 4.832,-3.333 5.806,-3.934 5.822,-3.95 M 9.281,-4.482 C 9.175,-4.579 8.28,-4.913 7.937,-4.944 7.892,-4.822 7.853,-4.33 7.848,-4.2 c 0.435,0.125 0.859,0.216 1.249,0.443 0.116,-0.205 0.184,-0.725 0.184,-0.725 m 3.572,-0.286 c -0.295,-0.417 -0.673,-0.828 -1.083,-1.136 -0.1,0.36 -0.287,0.889 -0.287,0.889 0.359,0.355 0.697,0.758 0.972,1.168 0,0 0.294,-0.609 0.398,-0.921 m -1.759,-0.011 c -0.409,-0.379 -0.838,-0.697 -1.315,-0.909 -0.074,0.295 -0.127,0.568 -0.161,0.844 0.407,0.245 0.78,0.566 1.145,0.907 0.064,-0.006 0.197,-0.458 0.331,-0.842 m 2.302,-1.064 c -0.05,0.276 0,0.251 -0.166,0.745 0.352,0.528 0.468,0.906 0.618,1.175 0.125,-0.637 -0.024,-1.245 -0.452,-1.92 m -5.831,1.616 c 0.091,-0.343 0.08,-0.757 0.08,-0.757 -0.573,0.003 -1.293,0.118 -1.656,0.275 0.024,0.22 0.044,0.471 0.098,0.682 0.26,-0.054 0.807,-0.245 1.478,-0.2 m -7.18,-2.958 c -0.222,0.18 -0.717,0.072 -0.837,0.047 0.462,0.925 0.786,1.899 1.064,2.895 0.031,-0.653 -0.031,-2.345 -0.227,-2.942 m 3.442,1.861 C 3.78,-5.591 3.72,-5.731 3.664,-6.123 c -0.692,0.412 -0.599,0.356 -1.215,0.908 0.056,0.264 0.093,0.592 0.2,0.837 0,0 0.788,-0.661 1.178,-0.946 m 1.826,0.249 C 5.592,-5.377 5.581,-5.739 5.581,-5.739 c -0.502,0.187 -1.161,0.516 -1.43,0.748 0.065,0.251 0.08,0.435 0.157,0.633 0.433,-0.275 0.873,-0.54 1.345,-0.717 M 2.127,-5.518 C 1.968,-6.101 1.956,-6.539 1.869,-7.053 1.667,-6.609 1.541,-5.376 1.556,-4.848 1.751,-5.059 1.924,-5.3 2.127,-5.518 m 7.389,-0.24 c 0.005,-0.077 -0.957,-0.377 -1.4,-0.399 0,0 -0.077,0.514 -0.103,0.747 0.465,0.079 0.956,0.203 1.363,0.418 0.06,-0.059 0.101,-0.553 0.14,-0.766 M 7.74,-5.436 C 7.803,-5.669 7.816,-5.922 7.839,-6.168 7.15,-6.21 6.073,-6.024 5.864,-5.854 5.888,-5.644 5.9,-5.389 5.941,-5.185 6.553,-5.377 7.222,-5.419 7.74,-5.436 m 3.543,0.189 c 0.096,-0.269 0.193,-0.537 0.236,-0.83 -0.492,-0.346 -1.001,-0.645 -1.566,-0.819 -0.043,0.04 -0.014,0.11 -0.038,0.16 -0.022,0.186 -0.048,0.372 -0.074,0.559 0.504,0.226 0.963,0.561 1.405,0.93 l 0.037,0 z M 13.17,-6.286 C 12.86,-6.609 12.61,-7.09 12.035,-7.1 c -0.053,0.232 -0.132,0.458 -0.155,0.707 0.389,0.298 0.778,0.65 1.106,1.043 0.047,-0.022 0.199,-0.622 0.184,-0.936 M 5.564,-6.244 5.499,-6.967 c -0.821,0.21 -1.325,0.545 -1.58,0.671 0.056,0.38 0.137,0.797 0.137,0.797 0.588,-0.398 1.508,-0.745 1.508,-0.745 M 3.614,-6.666 C 3.603,-6.889 3.559,-7.1 3.532,-7.316 3.432,-7.344 3.319,-7.369 3.212,-7.344 3.033,-7.159 2.834,-6.948 2.569,-7.055 L 2.147,-7.13 c -0.058,0.069 0.119,0.638 0.186,1.398 l 1.281,-0.934 z m 4.277,0.029 C 7.907,-6.84 7.959,-7.033 7.945,-7.253 7.818,-7.181 7.716,-7.059 7.576,-7.028 7.25,-7.072 6.928,-7.135 6.619,-7.212 c -0.28,0.006 -0.488,0.032 -0.81,0.157 0.025,0.34 0.025,0.377 0.033,0.726 0.642,-0.205 1.316,-0.327 2.049,-0.308 M 9.668,-6.992 C 9.231,-7.188 8.732,-7.244 8.243,-7.319 c -0.04,0.226 -0.026,0.472 -0.065,0.698 0.339,0.058 0.681,0.109 1.003,0.206 0.133,0.041 0.259,0.093 0.399,0.118 0,0 0.106,-0.489 0.088,-0.695 m 2.018,0.391 c 0.032,-0.18 0.081,-0.356 0.11,-0.536 -0.189,-0.088 -0.423,-0.075 -0.629,-0.134 -0.276,-0.023 -0.59,-0.17 -0.855,-0.023 0.456,0.232 0.9,0.467 1.33,0.739 l 0.044,-0.046 z m -7.174,-0.5 -0.685,-0.155 c 0.008,0.163 -0.01,0.323 0.041,0.457 L 4.512,-7.101 z M 1.556,-0.01 1.565,-0.495 1.003,-0.393 0.991,0.085 1.556,-0.01 z m 8.723,-2.757 c 0.123,-0.218 0.209,-0.45 0.305,-0.679 -0.305,-0.357 -0.665,-0.681 -1.052,-0.896 -0.086,0.232 -0.116,0.485 -0.169,0.731 0.448,0.364 0.712,0.632 0.893,0.844 l 0.023,0 z"
             style="fill:#cdb24e;fill-opacity:1;fill-rule:evenodd;stroke:none"
             id="path492"
             inkscape:connector-curvature="0" />
        </g>
        <g
           id="g494"
           transform="translate(89.4151,472.9856)">
          <path
             d="m 0,0 c 0.034,-0.071 -0.043,-0.088 -0.093,-0.078 -0.054,-0.012 -0.099,0.01 -0.132,0.053 L -0.226,0.052 C -0.133,0.07 -0.066,0.027 0,0"
             style="fill:#ffffff;fill-opacity:1;fill-rule:nonzero;stroke:none"
             id="path496"
             inkscape:connector-curvature="0" />
        </g>
        <g
           id="g498"
           transform="translate(93.2008,460.3801)">
          <path
             d="m 0,0 -0.115,-1.807 c -0.634,0.397 -0.96,0.735 -1.282,1.18 C -0.793,-0.28 -0.225,-0.077 0,0"
             style="fill:#ffffff;fill-opacity:1;fill-rule:nonzero;stroke:none"
             id="path500"
             inkscape:connector-curvature="0" />
        </g>
        <g
           id="g502"
           transform="translate(90.2236,473.0408)">
          <path
             d="M 0,0 C 0.006,-0.06 0.001,-0.121 -0.053,-0.155 -0.124,-0.166 -0.168,-0.178 -0.224,-0.118 -0.236,0.003 -0.071,-0.039 0,0"
             style="fill:#ffffff;fill-opacity:1;fill-rule:nonzero;stroke:none"
             id="path504"
             inkscape:connector-curvature="0" />
        </g>
        <g
           id="g506"
           transform="translate(102.0901,470.8661)">
          <path
             d="m 0,0 c 0.011,0.01 0.308,-0.26 0.322,-0.246 -0.46,-0.183 -1.823,-0.223 -2.66,-0.133 -1.061,0.15 -1.984,0.655 -3.116,0.635 -0.677,0.042 -1.305,-0.081 -1.909,-0.248 0,0 -0.015,0.247 0,0.344 0.936,0.345 2.354,0.391 3.31,0.078 C -2.181,-0.181 -1.027,-0.169 0,0"
             style="fill:#ffffff;fill-opacity:1;fill-rule:nonzero;stroke:none"
             id="path508"
             inkscape:connector-curvature="0" />
        </g>
        <g
           id="g510"
           transform="translate(95.0114,469.038)">
          <path
             d="M 0,0 -0.216,-0.573 -0.728,-0.574 -0.957,0.001 0,0 z"
             style="fill:#ffffff;fill-opacity:1;fill-rule:nonzero;stroke:none"
             id="path512"
             inkscape:connector-curvature="0" />
        </g>
        <g
           id="g514"
           transform="translate(102.4308,468.5867)">
          <path
             d="M 0,0 C 0.643,-0.16 1.273,-0.129 1.855,-0.008 1.871,0.008 2.024,-0.161 2.239,-0.269 1.386,-0.523 0.352,-0.452 -0.5,-0.246 c -0.675,0.142 -1.411,0.147 -2.179,-0.053 l -0.01,0.383 C -1.66,0.346 -0.754,0.188 0,0"
             style="fill:#ffffff;fill-opacity:1;fill-rule:nonzero;stroke:none"
             id="path516"
             inkscape:connector-curvature="0" />
        </g>
        <g
           id="g518"
           transform="translate(98.8713,462.7235)">
          <path
             d="m 0,0 c -0.028,0.054 -0.104,0.143 -0.189,0.072 -0.122,-0.22 -0.232,-0.426 -0.354,-0.627 -0.122,-0.199 -0.256,-0.393 -0.416,-0.577 -0.291,-0.327 -0.611,-0.642 -0.95,-0.875 l -0.169,0.076 c 0.402,0.38 0.729,0.82 0.961,1.263 0.013,0.061 -0.016,0.166 -0.113,0.157 l -0.074,-0.017 c -0.274,-0.478 -0.58,-0.955 -1.015,-1.299 l -0.192,0.063 c 0.436,0.529 0.744,1.081 0.944,1.67 -0.004,0.05 -0.017,0.068 -0.029,0.082 l -0.04,0.043 c -0.135,-0.014 -0.177,-0.086 -0.2,-0.153 -0.011,-0.029 -0.019,-0.06 -0.029,-0.09 -0.01,-0.027 -0.02,-0.048 -0.032,-0.064 -0.226,-0.51 -0.48,-1.013 -0.896,-1.416 -0.067,0.02 -0.134,0.034 -0.204,0.047 0.116,0.158 0.212,0.323 0.298,0.49 0.097,0.192 0.182,0.39 0.267,0.587 -0.003,0.058 -0.022,0.141 -0.1,0.154 -0.083,0 -0.132,-0.083 -0.146,-0.113 -0.14,-0.373 -0.36,-0.746 -0.615,-1.079 -0.081,0.009 -0.152,0.019 -0.224,0.024 l 0.027,0.049 c 0.021,0.038 0.043,0.076 0.07,0.111 0.211,0.43 0.406,0.872 0.528,1.339 -0.012,0.086 -0.075,0.111 -0.101,0.12 L -3.102,0.003 c -0.193,-0.571 -0.392,-1.085 -0.705,-1.575 -0.044,0.001 -0.087,-0.002 -0.132,-0.006 0.168,0.349 0.307,0.707 0.402,1.085 l -0.018,0.051 -0.019,0.023 c -0.032,0.033 -0.071,0.058 -0.121,0.032 -0.066,-0.075 -0.095,-0.146 -0.118,-0.214 -0.02,-0.063 -0.036,-0.129 -0.062,-0.191 -0.047,-0.109 -0.103,-0.236 -0.162,-0.358 l -0.024,4.482 c 0.026,-0.036 0.05,-0.075 0.075,-0.116 0.026,-0.043 0.051,-0.086 0.079,-0.127 0.028,-0.042 0.06,-0.083 0.096,-0.121 0.109,-0.018 0.153,0.053 0.168,0.087 l 0,0.021 c -0.113,0.249 -0.262,0.459 -0.421,0.66 L -4.067,4.283 C -4.023,4.25 -3.981,4.211 -3.939,4.171 -3.871,4.103 -3.807,4.032 -3.745,3.967 l 0.036,-0.044 c 0.014,-0.016 0.029,-0.033 0.044,-0.049 0.032,-0.031 0.074,-0.063 0.127,-0.072 0.045,0.019 0.077,0.044 0.095,0.076 0.019,0.034 0.021,0.075 -0.011,0.114 -0.141,0.194 -0.345,0.396 -0.533,0.562 l 0.266,0.079 c 0.552,-0.429 0.998,-1.008 1.18,-1.627 0.024,-0.029 0.029,-0.032 0.036,-0.039 0.008,-0.007 0.016,-0.015 0.024,-0.022 0.023,-0.019 0.068,-0.042 0.112,-0.002 0.051,0.023 0.062,0.069 0.061,0.105 0,0.018 -0.004,0.036 -0.008,0.05 l -0.01,0.035 C -2.538,3.714 -2.88,4.281 -3.4,4.719 l 0.336,0.096 C -2.786,4.6 -2.515,4.309 -2.366,4.018 L -2.341,3.991 C -2.335,3.983 -2.329,3.975 -2.322,3.968 -2.3,3.947 -2.26,3.926 -2.211,3.951 -2.11,4.017 -2.133,4.103 -2.17,4.16 -2.185,4.183 -2.205,4.207 -2.222,4.231 -2.237,4.253 -2.243,4.267 -2.244,4.276 -2.394,4.506 -2.577,4.72 -2.765,4.903 l 0.292,0.087 c 0.484,-0.378 0.801,-0.857 0.988,-1.356 0.042,-0.067 0.124,-0.107 0.194,-0.061 0.04,0.121 0.012,0.198 -0.02,0.264 -0.015,0.031 -0.032,0.061 -0.048,0.092 -0.015,0.028 -0.029,0.058 -0.039,0.086 -0.154,0.383 -0.421,0.751 -0.756,1.055 l 0.331,0.094 c 0.51,-0.448 0.913,-0.988 1.091,-1.588 l 0.034,-0.041 c 0.008,-0.007 0.02,-0.018 0.033,-0.026 0.03,-0.018 0.073,-0.026 0.114,0.011 0.066,0.054 0.058,0.119 0.042,0.168 -0.007,0.02 -0.017,0.041 -0.025,0.061 -0.007,0.019 -0.011,0.032 -0.012,0.042 -0.21,0.551 -0.572,1.021 -1.001,1.453 l 0.376,0.107 C -0.727,4.896 -0.371,4.374 -0.138,3.83 -0.09,3.698 -0.042,3.567 -0.001,3.431 0.039,3.297 0.071,3.159 0.086,3.014 0.13,2.93 0.197,2.93 0.239,2.934 0.335,3.042 0.324,3.129 0.304,3.204 0.295,3.238 0.283,3.273 0.273,3.307 0.264,3.34 0.258,3.37 0.259,3.397 0.056,4.151 -0.36,4.833 -0.912,5.42 l 0.365,0.11 C -0.178,5.168 0.13,4.736 0.312,4.297 0.319,4.263 0.328,4.235 0.34,4.205 0.353,4.175 0.367,4.147 0.382,4.119 0.41,4.063 0.433,4.016 0.441,3.965 0.458,3.932 0.465,3.916 0.47,3.899 0.476,3.879 0.481,3.858 0.487,3.838 0.499,3.793 0.521,3.738 0.581,3.7 c 0.058,0 0.076,0.007 0.094,0.017 0.017,0.01 0.033,0.023 0.048,0.044 l 0.005,0.02 C 0.574,4.467 0.201,5.076 -0.275,5.603 l 0.28,0.08 C 0.84,4.641 1.313,3.337 1.117,1.905 0.905,0.361 -0.069,-0.977 -1.362,-2.091 -1.38,-2.1 -1.399,-2.114 -1.417,-2.127 l -0.049,-0.037 c -0.022,-0.017 -0.042,-0.03 -0.066,-0.04 -0.033,0.024 -0.08,0.048 -0.119,0.067 0.705,0.56 1.338,1.318 1.651,2.116 L 0,0 z"
             style="fill:#ffffff;fill-opacity:1;fill-rule:nonzero;stroke:none"
             id="path520"
             inkscape:connector-curvature="0" />
        </g>
        <g
           id="g522"
           transform="translate(94.2872,467.1612)">
          <path
             d="m 0,0 -0.007,-0.238 c 0,0 -0.119,0.125 -0.236,0.173 L 0,0 z"
             style="fill:#ffffff;fill-opacity:1;fill-rule:nonzero;stroke:none"
             id="path524"
             inkscape:connector-curvature="0" />
        </g>
        <g
           id="g526"
           transform="translate(93.013,465.1573)">
          <path
             d="M 0,0 0.005,0.021 C -0.02,0.134 -0.066,0.211 -0.115,0.282 -0.163,0.351 -0.216,0.417 -0.268,0.485 -0.497,0.8 -0.82,1.057 -1.126,1.266 l 0.287,0.083 C -0.596,1.193 -0.28,0.936 -0.07,0.715 -0.01,0.685 0.032,0.697 0.061,0.722 0.085,0.742 0.1,0.77 0.109,0.785 L 0.108,0.813 c -0.182,0.24 -0.414,0.459 -0.646,0.62 L -0.31,1.497 C 0.108,1.237 0.587,0.828 0.819,0.406 0.835,0.386 0.861,0.358 0.891,0.344 0.924,0.328 0.966,0.327 1.003,0.356 1.039,0.378 1.045,0.411 1.046,0.434 1.046,0.443 1.045,0.451 1.044,0.459 L 1.047,0.484 C 0.804,0.915 0.397,1.307 0.01,1.588 L 0.277,1.664 C 0.513,1.537 0.742,1.359 0.957,1.171 1.016,1.142 1.057,1.161 1.08,1.186 L 1.097,1.208 1.138,1.246 C 1.086,1.356 1.032,1.416 0.974,1.469 0.919,1.519 0.856,1.566 0.802,1.61 L 0.595,1.757 0.817,1.822 C 0.892,1.775 1.14,1.618 1.21,1.56 1.196,0.939 1.096,-3.593 1.084,-4.111 1.029,-4.119 0.954,-4.136 0.883,-4.153 L 0.752,-4.187 c 0.13,0.313 0.242,0.611 0.347,0.936 0.005,0.049 0.004,0.115 -0.06,0.152 C 0.955,-3.07 0.906,-3.107 0.88,-3.153 0.875,-3.162 0.87,-3.172 0.866,-3.183 L 0.856,-3.208 C 0.85,-3.226 0.845,-3.236 0.841,-3.243 0.717,-3.634 0.583,-3.94 0.417,-4.277 0.338,-4.297 0.241,-4.329 0.161,-4.358 c 0.17,0.42 0.355,0.938 0.433,1.38 -0.028,0.094 -0.087,0.13 -0.163,0.106 C 0.373,-2.9 0.353,-2.946 0.345,-2.986 0.342,-3.001 0.341,-3.018 0.339,-3.033 0.337,-3.047 0.334,-3.058 0.332,-3.064 0.195,-3.559 0.057,-4.045 -0.175,-4.49 l -0.224,-0.094 c 0.118,0.299 0.254,0.693 0.327,0.979 -0.001,0.033 -0.005,0.058 -0.018,0.081 -0.014,0.024 -0.041,0.048 -0.08,0.051 -0.08,-0.001 -0.122,-0.056 -0.141,-0.105 -0.016,-0.04 -0.024,-0.091 -0.037,-0.126 -0.103,-0.332 -0.249,-0.729 -0.404,-1.045 -0.072,-0.031 -0.16,-0.076 -0.234,-0.116 0.642,1.566 0.768,3.939 -0.545,5.223 -0.218,0.231 -0.489,0.42 -0.736,0.585 l 0.364,0.104 c 0.232,-0.13 0.462,-0.289 0.672,-0.463 0.083,-0.022 0.127,0.002 0.158,0.044 L -1.076,0.756 C -1.237,0.902 -1.402,1.031 -1.575,1.14 l 0.122,0.036 c 0.059,-0.02 0.125,-0.057 0.192,-0.103 0.074,-0.05 0.144,-0.105 0.202,-0.146 0.337,-0.244 0.626,-0.607 0.87,-0.96 C -0.1,-0.108 -0.023,-0.03 0,0"
             style="fill:#ffffff;fill-opacity:1;fill-rule:nonzero;stroke:none"
             id="path528"
             inkscape:connector-curvature="0" />
        </g>
        <g
           id="g530"
           transform="translate(100.2944,462.6764)">
          <path
             d="m 0,0 c -0.09,-0.015 -0.131,-0.06 -0.161,-0.107 -0.013,-0.022 -0.025,-0.045 -0.038,-0.068 -0.012,-0.021 -0.024,-0.04 -0.038,-0.057 -0.037,-0.044 -0.086,-0.096 -0.14,-0.143 L -0.388,0.207 C 0.143,1.03 0.363,2.526 0.122,3.439 L 0.141,3.421 C 0.155,3.408 0.166,3.395 0.176,3.383 L 0.205,3.347 C 0.244,3.299 0.281,3.256 0.371,3.253 0.413,3.276 0.431,3.297 0.441,3.322 0.45,3.348 0.453,3.38 0.426,3.41 0.322,3.547 0.182,3.682 0.037,3.771 L 0.023,3.844 0.212,3.894 C 0.484,3.702 0.694,3.42 0.867,3.151 0.94,3.126 1.012,3.139 1.03,3.212 0.894,3.525 0.693,3.763 0.47,3.97 L 0.731,4.04 C 1.073,3.713 1.363,3.375 1.529,2.982 1.571,2.926 1.62,2.929 1.655,2.954 1.683,2.974 1.704,3.007 1.714,3.027 L 1.716,3.048 C 1.57,3.449 1.292,3.791 0.984,4.104 L 1.2,4.162 C 1.458,3.975 1.631,3.678 1.775,3.414 L 1.806,3.383 C 1.815,3.374 1.826,3.363 1.839,3.355 1.869,3.334 1.912,3.327 1.943,3.373 1.974,3.394 1.981,3.426 1.981,3.452 1.98,3.48 1.971,3.507 1.962,3.524 1.831,3.775 1.671,4.021 1.459,4.234 L 1.55,4.26 C 2.466,3.486 2.692,1.975 2.172,0.861 1.69,-0.17 0.577,-1.117 -0.357,-1.397 l -0.002,0.058 c 0.198,0.124 0.403,0.246 0.604,0.378 0.208,0.136 0.415,0.286 0.603,0.457 0.029,0.035 0.03,0.09 0,0.125 -0.067,0.068 -0.135,0.036 -0.178,0 C 0.65,-0.395 0.631,-0.415 0.611,-0.433 0.592,-0.45 0.577,-0.46 0.565,-0.464 0.411,-0.599 0.247,-0.715 0.08,-0.823 -0.07,-0.92 -0.222,-1.011 -0.366,-1.1 l 0,0.072 c 0.379,0.266 0.71,0.52 1.027,0.855 0.02,0.07 -0.001,0.112 -0.04,0.14 L 0.525,-0.025 C 0.364,-0.174 0.21,-0.319 0.053,-0.454 -0.085,-0.572 -0.225,-0.683 -0.367,-0.775 l -0.002,0.093 c 0.171,0.154 0.346,0.336 0.444,0.536 C 0.086,-0.092 0.072,-0.017 0,0"
             style="fill:#ffffff;fill-opacity:1;fill-rule:evenodd;stroke:none"
             id="path532"
             inkscape:connector-curvature="0" />
        </g>
        <g
           id="g534"
           transform="translate(99.4452,461.889)">
          <path
             d="m 0,0 c -0.175,-0.125 -0.345,-0.283 -0.537,-0.369 0.207,0.25 0.386,0.415 0.546,0.754 L 0,0 z"
             style="fill:#ffffff;fill-opacity:1;fill-rule:nonzero;stroke:none"
             id="path536"
             inkscape:connector-curvature="0" />
        </g>
        <g
           id="g538"
           transform="translate(99.4452,461.5462)">
          <path
             d="m 0,0 c -0.289,-0.187 -0.577,-0.335 -0.92,-0.485 0.057,0.075 0.105,0.123 0.151,0.182 0.261,0.119 0.528,0.281 0.77,0.434 L 0,0 z"
             style="fill:#ffffff;fill-opacity:1;fill-rule:evenodd;stroke:none"
             id="path540"
             inkscape:connector-curvature="0" />
        </g>
        <g
           id="g542"
           transform="translate(99.4452,461.1933)">
          <path
             d="M 0,0 C -0.123,-0.037 -0.284,-0.05 -0.428,-0.06 -0.197,0.023 0,0.155 0,0.155 L 0,0 z"
             style="fill:#ffffff;fill-opacity:1;fill-rule:nonzero;stroke:none"
             id="path544"
             inkscape:connector-curvature="0" />
        </g>
        <g
           id="g546"
           transform="translate(89.3551,468.0643)">
          <path
             d="M 0,0 C -0.038,-0.055 -0.093,-0.062 -0.153,-0.057 -0.214,-0.019 -0.209,0.014 -0.232,0.074 -0.15,0.119 -0.023,0.088 0,0"
             style="fill:#ffffff;fill-opacity:1;fill-rule:nonzero;stroke:none"
             id="path548"
             inkscape:connector-curvature="0" />
        </g>
        <g
           id="g550"
           transform="translate(90.1611,468.1516)">
          <path
             d="m 0,0 c 0.023,-0.071 -0.037,-0.105 -0.075,-0.149 -0.05,0.01 -0.126,-0.035 -0.154,0.036 C -0.209,-0.019 -0.099,0.021 0,0"
             style="fill:#ffffff;fill-opacity:1;fill-rule:nonzero;stroke:none"
             id="path552"
             inkscape:connector-curvature="0" />
        </g>
        <g
           id="g554"
           transform="translate(97.1553,477.0301)">
          <path
             d="m 0,0 c 0.041,-0.079 0.042,-0.186 0.027,-0.276 -0.049,-0.097 -0.151,-0.165 -0.251,-0.186 -0.08,0.005 -0.15,0.028 -0.218,0.067 -0.097,0.085 -0.098,0.216 -0.073,0.34 0.039,0.084 0.103,0.151 0.19,0.172 C -0.199,0.136 -0.116,0.117 0,0"
             style="fill:#cdb24e;fill-opacity:1;fill-rule:nonzero;stroke:none"
             id="path556"
             inkscape:connector-curvature="0" />
        </g>
        <g
           id="g558"
           transform="translate(96.512,476.0654)">
          <path
             d="M 0,0 -1.483,-2.697 -2.281,-2.81 -0.12,-0.035 0,0 z"
             style="fill:#cdb24e;fill-opacity:1;fill-rule:nonzero;stroke:none"
             id="path560"
             inkscape:connector-curvature="0" />
        </g>
        <g
           id="g562"
           transform="translate(97.3745,476.0189)">
          <path
             d="M 0,0 2.222,-2.732 1.334,-2.642 -0.103,0.052 0,0 z"
             style="fill:#cdb24e;fill-opacity:1;fill-rule:nonzero;stroke:none"
             id="path564"
             inkscape:connector-curvature="0" />
        </g>
        <g
           id="g566"
           transform="translate(96.9042,476.41)">
          <path
             d="M 0,0 1.432,-3.001 -1.543,-3.004 -0.023,0 0,0 z"
             style="fill:#cdb24e;fill-opacity:1;fill-rule:nonzero;stroke:none"
             id="path568"
             inkscape:connector-curvature="0" />
        </g>
        <g
           id="g570"
           transform="translate(98.3807,470.5648)">
          <path
             d="M 0,0 0.099,-1.87 -2.764,-2.687 -2.73,0.238 C -1.909,0.41 -0.921,0.262 0,0"
             style="fill:#d8241f;fill-opacity:1;fill-rule:nonzero;stroke:none"
             id="path572"
             inkscape:connector-curvature="0" />
        </g>
        <g
           id="g574"
           transform="translate(98.4147,473.1432)">
          <path
             d="M 0,0 -0.132,-0.266 -2.822,-0.262 -3.028,0 0,0 z"
             style="fill:#d8241f;fill-opacity:1;fill-rule:nonzero;stroke:none"
             id="path576"
             inkscape:connector-curvature="0" />
        </g>
        <g
           id="g578"
           transform="translate(100.0231,467.1262)">
          <path
             d="m 0,0 c -0.056,0.167 -0.173,0.471 -0.258,0.629 l -0.008,0.29 c 0,0 0.075,0.012 0.183,0.032 L 0,0 z"
             style="fill:#d8241f;fill-opacity:1;fill-rule:nonzero;stroke:none"
             id="path580"
             inkscape:connector-curvature="0" />
        </g>
        <g
           id="g582"
           transform="translate(95.4756,458.1464)">
          <path
             d="M 0,0 0.033,2.581 C 0.606,2.552 1.379,2.341 1.821,1.989 2.222,2.159 2.513,2.49 2.816,2.791 L 2.961,2.792 C 2.364,1.377 1.61,0.357 0,0"
             style="fill:#d8241f;fill-opacity:1;fill-rule:nonzero;stroke:none"
             id="path584"
             inkscape:connector-curvature="0" />
        </g>
        <g
           id="g586"
           transform="translate(89.3512,471.6053)">
          <path
             d="M 0,0 C 0,0.103 0.139,0.187 0.311,0.187 0.483,0.187 0.622,0.103 0.622,0 0.622,-0.103 0.483,-0.187 0.311,-0.187 0.139,-0.187 0,-0.103 0,0"
             style="fill:#cdb24e;fill-opacity:1;fill-rule:nonzero;stroke:none"
             id="path588"
             inkscape:connector-curvature="0" />
        </g>
        <g
           id="g590"
           transform="translate(89.3042,466.7159)">
          <path
             d="M 0,0 C 0,0.103 0.139,0.187 0.311,0.187 0.483,0.187 0.622,0.103 0.622,0 0.622,-0.103 0.483,-0.186 0.311,-0.186 0.139,-0.186 0,-0.103 0,0"
             style="fill:#cdb24e;fill-opacity:1;fill-rule:nonzero;stroke:none"
             id="path592"
             inkscape:connector-curvature="0" />
        </g>
        <g
           id="g594"
           transform="translate(95.15,458.0959)">
          <path
             d="m 0,0 c 0,0 -0.259,-0.019 -0.353,0 l -0.014,2.627 c 0.15,0.02 0.411,0.016 0.411,0.016 L 0,0 z"
             style="fill:#d8241f;fill-opacity:1;fill-rule:nonzero;stroke:none"
             id="path596"
             inkscape:connector-curvature="0" />
        </g>
        <g
           id="g598"
           transform="translate(94.1387,460.6406)">
          <path
             d="m 0,0 -0.052,-2.45 c -0.256,0.05 -0.583,0.162 -0.692,0.231 l 0.118,2.065 C -0.379,-0.052 0,0 0,0"
             style="fill:#d8241f;fill-opacity:1;fill-rule:nonzero;stroke:none"
             id="path600"
             inkscape:connector-curvature="0" />
        </g>
        <g
           id="g602"
           transform="translate(94.0331,468.1954)">
          <path
             d="m 0,0 0.276,0 -0.015,-0.692 -0.404,-0.112 0.055,1 L 0,0 z"
             style="fill:#d8241f;fill-opacity:1;fill-rule:nonzero;stroke:none"
             id="path604"
             inkscape:connector-curvature="0" />
        </g>
        <g
           id="g606"
           transform="translate(95.3126,467.791)">
          <path
             d="m 0,0 -0.565,-0.158 -0.006,0.562 0.281,0 L 0.018,1.22 0,0 z"
             style="fill:#d8241f;fill-opacity:1;fill-rule:nonzero;stroke:none"
             id="path608"
             inkscape:connector-curvature="0" />
        </g>
        <g
           id="g610"
           transform="translate(99.7897,470.1957)">
          <path
             d="m 0,0 0.075,-1.086 -0.135,-0.043 -0.006,0.132 c -0.01,0.199 -0.225,0.164 -0.225,0.018 l -0.011,-1.045 c 0,0 -0.163,0.278 -0.273,0.41 0.135,0.069 0.051,0.322 -0.086,0.291 L -0.99,-1.41 -1.117,0.274 C -0.665,0.097 0,0 0,0"
             style="fill:#d8241f;fill-opacity:1;fill-rule:nonzero;stroke:none"
             id="path612"
             inkscape:connector-curvature="0" />
        </g>
        <g
           id="g614"
           transform="translate(95.3422,469.3046)">
          <path
             d="m 0,0 -0.606,0 -0.009,1.29 c 0.274,0.102 0.638,0.15 0.638,0.15 L 0,0 z"
             style="fill:#d8241f;fill-opacity:1;fill-rule:nonzero;stroke:none"
             id="path616"
             inkscape:connector-curvature="0" />
        </g>
        <g
           id="g618"
           transform="translate(95.3823,472.5797)">
          <path
             d="m 0,0 0.006,-0.736 -0.665,-0.14 -0.014,0.2 c -0.027,0.085 -0.071,0.15 -0.173,0.146 -0.156,-0.007 -0.158,-0.168 -0.158,-0.168 l -0.031,-2.577 -0.349,0 0.167,3.109 L 0,0 z"
             style="fill:#d8241f;fill-opacity:1;fill-rule:nonzero;stroke:none"
             id="path620"
             inkscape:connector-curvature="0" />
        </g>
        <g
           id="g622"
           transform="translate(99.6205,472.4496)">
          <path
             d="m 0,0 c 0,0 0.124,-1.08 0.101,-1.117 -0.407,0.048 -0.811,0.133 -1.162,0.264 l -0.066,1.004 c 0,0 1.131,-0.153 1.127,-0.151"
             style="fill:#d8241f;fill-opacity:1;fill-rule:nonzero;stroke:none"
             id="path624"
             inkscape:connector-curvature="0" />
        </g>
        <g
           id="g626"
           transform="translate(98.2379,472.6208)">
          <path
             d="m 0,0 0.063,-0.929 c -0.641,0.169 -1.43,0.389 -2.638,0.196 L -2.566,-0.001 0,0 z"
             style="fill:#d8241f;fill-opacity:1;fill-rule:nonzero;stroke:none"
             id="path628"
             inkscape:connector-curvature="0" />
        </g>
        <g
           id="g630"
           transform="translate(99.8375,473.0133)">
          <path
             d="M 0,0 -0.193,-0.299 -1.211,-0.161 -1.064,0.09 0,0 z"
             style="fill:#d8241f;fill-opacity:1;fill-rule:nonzero;stroke:none"
             id="path632"
             inkscape:connector-curvature="0" />
        </g>
        <g
           id="g634"
           transform="translate(95.2385,472.8391)">
          <path
             d="M 0,0 -1.104,-0.168 -1.294,0.067 -0.206,0.256 0,0 z"
             style="fill:#d8241f;fill-opacity:1;fill-rule:nonzero;stroke:none"
             id="path636"
             inkscape:connector-curvature="0" />
        </g>
        <g
           id="g638"
           transform="translate(97.912,468.8818)">
          <path
             d="m 0,0 c 0,0 -1.773,-0.011 -1.79,-0.007 0.073,0.9 0.152,1.564 0.873,1.572 C -0.211,1.573 -0.073,0.906 0,0"
             style="fill:#002e6b;fill-opacity:1;fill-rule:nonzero;stroke:none"
             id="path640"
             inkscape:connector-curvature="0" />
        </g>
        <g
           id="g642"
           transform="translate(97.6539,469.1028)">
          <path
             d="m 0,0 c 0,0 -1.262,0.002 -1.274,0.004 0.052,0.642 0.107,1.105 0.62,1.111 C -0.15,1.121 -0.052,0.646 0,0"
             style="fill:#ffffff;fill-opacity:1;fill-rule:nonzero;stroke:none"
             id="path644"
             inkscape:connector-curvature="0" />
        </g>
        <g
           id="g646"
           transform="translate(97.3708,469.3573)">
          <path
             d="m 0,0 -0.708,0.005 c -0.004,0.277 0.079,0.603 0.35,0.601 C -0.03,0.604 -0.004,0.282 0,0"
             style="fill:#002e6b;fill-opacity:1;fill-rule:nonzero;stroke:none"
             id="path648"
             inkscape:connector-curvature="0" />
        </g>
      </g>
    </g>
  </g>
</svg>
