<?xml version="1.0" encoding="UTF-8"?>
<svg id="Layer_1" data-name="Layer 1" xmlns="http://www.w3.org/2000/svg" viewBox="0 0 4032.07 4032.07">
  <defs>
    <style>
      .cls-1 {
        fill: #fff;
      }

      .cls-2 {
        fill-rule: evenodd;
      }
    </style>
  </defs>
  <rect class="cls-1" width="4032.07" height="4032.07"/>
  <g>
    <path class="cls-2" d="M2657.81,1986.69c-5.66-21.7-24.54-25.48-50.96-17.93-132.11,37.74-133.05-17.93-279.31,32.08-234.02-117.95-174.57-284.03-203.82-435.95-313.28-188.72-664.31-156.64-1020.99-91.53,134.94,125.5,330.27,204.76,604.86,222.69,150.03,159.47,234.02,341.59,255.72,543.52,52.84-55.67,119.84-88.7,190.61-114.18-152.86,85.87-217.03,238.73-400.09,308.56,153.81,210.43,226.47,84.93,354.8-42.46,205.71-50.95,364.24-150.98,445.39-331.21,33.97-28.31,67.94-65.11,103.8-73.6h0Z"/>
    <path class="cls-2" d="M2423.8,2275.44c54.73-51.9,104.74-107.57,131.16-181.17,354.8-111.35,415.19,129.27,352.91,515.21-145.32-198.16-284.03-436.89-484.08-334.04h0Z"/>
  </g>
</svg>